/* XPM */
static char *pacman3_1_png1684912979[] = {
/* columns rows colors chars-per-pixel */
"60 60 2 1 ",
"  c #000001",
". c #0300B4",
/* pixels */
"                                                            ",
"                                                            ",
"                                                            ",
"                                                            ",
"                                                            ",
"                                                            ",
"                                                            ",
"                                                            ",
"                                                            ",
"                                                            ",
"                                                            ",
"                                                            ",
"                                                            ",
"                                                            ",
"                                                            ",
"                                                            ",
"                                                            ",
"                                                            ",
"                                                            ",
"                                                            ",
"                                                            ",
"                                                            ",
"                           ......                           ",
"                         ..........                         ",
"                        ............                        ",
"                        ............                        ",
"                       ..............                       ",
"                       ..............                       ",
"                       ..............                       ",
"                       ..............                       ",
"                       ..............                       ",
"                        ............                        ",
"                        ............                        ",
"                         ..........                         ",
"                           ......                           ",
"                                                            ",
"                                                            ",
"                                                            ",
"                                                            ",
"                                                            ",
"                                                            ",
"                                                            ",
"                                                            ",
"                                                            ",
"                                                            ",
"                                                            ",
"                                                            ",
"                                                            ",
"                                                            ",
"                                                            ",
"                                                            ",
"                                                            ",
"                                                            ",
"                                                            ",
"                                                            ",
"                                                            ",
"                                                            ",
"                                                            ",
"                                                            ",
"                                                            "
};
