/* XPM */
static char *ffd7a6fb9add474283df0db1a21d004evGpIKuykSktlvXsD[] = {
/* columns rows colors chars-per-pixel */
"60 60 20 1 ",
"  c black",
". c #030300",
"X c #03030E",
"o c #0B0B1E",
"O c #161641",
"+ c #212264",
"@ c #2A2A6D",
"# c #2E2D85",
"$ c #38399F",
"% c #3B3C9C",
"& c #3939A5",
"* c #3D3CAC",
"= c #4544BB",
"- c #4445C4",
"; c #5556F1",
": c #5757FB",
"> c #5758FF",
", c #5959F9",
"< c #5E5FF9",
"1 c #5E60FF",
/* pixels */
"                                                            ",
"                                                            ",
"                                                            ",
"                                                            ",
"                                                            ",
"                                                            ",
"                                                            ",
"                                                            ",
"                                                            ",
"                                                            ",
"                                                            ",
"                                                            ",
"                                                            ",
"                                                            ",
"                        @@**********************************",
"                        @@**********************************",
"                      oo%%>>,>::::::::::::::::::::::::::::::",
"                      oo%%>>>,::::::::::::::::::::::::::::::",
"                      11%%                                  ",
"                      11%%                                  ",
"                  XX==##OO  --------------------------------",
"                ..XX==##OO  --------------------------------",
"                  XX<<  ++$$$$&&&&&&&&&&&&&&&&&&&&&&&&&&&&&&",
"                  XX<<  ++$$$$&&&&&&&&&&&&&&&&&&&&&&&&&&&&&&",
"                  XX<<  %%,,                                ",
"                  XX<<  %%,,                                ",
"                  XX<<  %%;;  ..                            ",
"                  XX<<  %%;;  ..                            ",
"                  XX<<  %%;;                                ",
"                  XX<<  %%;;                                ",
"                  XX<<  %%;;                                ",
"                  XX<<  %%;;                                ",
"                  XX<<  %%;;                                ",
"                  XX<<  %%;;                                ",
"                  XX<<  %%;;                                ",
"                  XX<<  %%;;                                ",
"                  XX<<  %%;;                                ",
"                  XX<<  %%;;                                ",
"                  XX<<  %%;;                                ",
"                  XX<<  %%;;                                ",
"                  XX<<  %%;;                                ",
"                  XX<<  %%;;                                ",
"                  XX<<  %%;;                                ",
"                  XX<<  %%;;                                ",
"                  XX<<  %%;;                                ",
"                  XX<<  %%;;                                ",
"                  XX<<  %%;;                                ",
"                  XX<<  %%;;                                ",
"                  XX<<  %%;;                                ",
"                  XX<<  %%;;                                ",
"                  XX<<  %%;;                                ",
"                  XX<<  %%;;                                ",
"                  XX<<  %%;;                                ",
"                  XX<<  %%;;                                ",
"                  XX<<  %%;;                                ",
"                  XX<<  %%;;                                ",
"                  XX<<  %%;;                                ",
"                  XX<<  %%;;                                ",
"                  XX<<  %%;;                                ",
"                  XX<<  %%;;                                "
};
