/* XPM */
static char *corner_d_r_1_png_1_1684174502[] = {
/* columns rows colors chars-per-pixel */
"60 60 19 1 ",
"  c black",
". c #000006",
"X c #030318",
"o c #0E0E3F",
"O c #1B1D64",
"+ c #25256D",
"@ c #2A2986",
"# c #38399D",
"$ c #3536A0",
"% c #3636A7",
"& c #3B39AE",
"* c #4342BC",
"= c #4243C5",
"- c #5455F1",
"; c #5656FB",
": c #5658FF",
"> c #5959F9",
", c #5E5FF9",
"< c #5E60FF",
/* pixels */
"                                --##  ,,..                  ",
"                                --##  ,,..                  ",
"                                --##  ,,..                  ",
"                                --##  ,,..                  ",
"                                --##  ,,..                  ",
"                                --##  ,,..                  ",
"                                --##  ,,..                  ",
"                                --##  ,,..                  ",
"                                --##  ,,..                  ",
"                                --##  ,,..                  ",
"                                --##  ,,..                  ",
"                                --##  ,,..                  ",
"                                --##  ,,..                  ",
"                                --##  ,,..                  ",
"                                --##  ,,..                  ",
"                                --##  ,,..                  ",
"                                --##  ,,..                  ",
"                                --##  ,,..                  ",
"                                --##  ,,..                  ",
"                                --##  ,,..                  ",
"                                --##  ,,..                  ",
"                                --##  ,,..                  ",
"                                --##  ,,..                  ",
"                                --##  ,,..                  ",
"                                --##  ,,..                  ",
"                                --##  ,,..                  ",
"                                --##  ,,..                  ",
"                                --##  ,,..                  ",
"                                --##  ,,..                  ",
"                                --##  ,,..                  ",
"                                --##  ,,..                  ",
"                                --##  ,,..                  ",
"                                --##  ,,..                  ",
"                                --##  ,,..                  ",
"                                >>##  ,,..                  ",
"                                >>##  ,,..                  ",
"%%%%%%%%%%%%%%%%%%%%%%%%%%%%%%$$$$OO  ,,..                  ",
"%%%%%%%%%%%%%%%%%%%%%%%%%%%%%%$$$$OO  ,,..                  ",
"================================  oo@@**..                  ",
"================================  oo@@**..                  ",
"                                  ##<<                      ",
"                                  ##<<                      ",
";;;;;;;;;;;;;;;;;;;;;;;;;;;;;;>:::##XX                      ",
";;;;;;;;;;;;;;;;;;;;;;;;;;;;;;:>::##XX                      ",
"&&&&&&&&&&&&&&&&&&&&&&&&&&&&&&&&&&++                        ",
"&&&&&&&&&&&&&&&&&&&&&&&&&&&&&&&&&&++                        ",
"                                                            ",
"                                                            ",
"                                                            ",
"                                                            ",
"                                                            ",
"                                                            ",
"                                                            ",
"                                                            ",
"                                                            ",
"                                                            ",
"                                                            ",
"                                                            ",
"                                                            ",
"                                                            "
};
