/* XPM */
static char *_75cbb1e_df65_405a_9cd0_cf177e1a2f00_1_png_1_1684851430[] = {
/* columns rows colors chars-per-pixel */
"60 60 4 1 ",
"  c None",
". c #1E62FF",
"X c #ED518D",
"o c white",
/* pixels */
"                                                            ",
"                                                            ",
"                                                            ",
"                                                            ",
"                                                            ",
"                                                            ",
"                                                            ",
"                       XXXXXXXXXXXXXX                       ",
"                       XXXXXXXXXXXXXX                       ",
"                       XXXXXXXXXXXXXX                       ",
"                 XXXXXXXXXXXXXXXXXXXXXXXXXX                 ",
"                 XXXXXXXXXXXXXXXXXXXXXXXXXX                 ",
"                 XXXXXXXXXXXXXXXXXXXXXXXXXX                 ",
"             XXXXXXXXXXXXXXXXXXXXXXXXXXXXXXXXXX             ",
"             XXXXXXXXXXXXXXXXXXXXXXXXXXXXXXXXXX             ",
"             XXXXXXXXXXXXXXXXXXXXXXXXXXXXXXXXXX             ",
"             XXXXXXXXXXXXXXXXXXXXXXXXXXXXXXXXXX             ",
"          XXXoooooooXXXXXXXXXXXXXoooooooXXXXXXXXXX          ",
"          XXXoooooooXXXXXXXXXXXXXoooooooXXXXXXXXXX          ",
"          XXXoooooooXXXXXXXXXXXXXoooooooXXXXXXXXXX          ",
"          oooooooooooooXXXXXXXoooooooooooooXXXXXXX          ",
"          oooooooooooooXXXXXXXoooooooooooooXXXXXXX          ",
"          oooooooooooooXXXXXXXoooooooooooooXXXXXXX          ",
"          .......ooooooXXXXXXX.......ooooooXXXXXXX          ",
"          .......ooooooXXXXXXX.......ooooooXXXXXXX          ",
"          .......ooooooXXXXXXX.......ooooooXXXXXXX          ",
"          .......ooooooXXXXXXX.......ooooooXXXXXXX          ",
"       XXX.......ooooooXXXXXXX.......ooooooXXXXXXXXXX       ",
"       XXX.......ooooooXXXXXXX.......ooooooXXXXXXXXXX       ",
"       XXX.......ooooooXXXXXXX.......ooooooXXXXXXXXXX       ",
"       XXXXXXXXXXXXXXXXXXXXXXXXXXXXXXXXXXXXXXXXXXXXXX       ",
"       XXXXXXXXXXXXXXXXXXXXXXXXXXXXXXXXXXXXXXXXXXXXXX       ",
"       XXXXXXXXXXXXXXXXXXXXXXXXXXXXXXXXXXXXXXXXXXXXXX       ",
"       XXXXXXXXXXXXXXXXXXXXXXXXXXXXXXXXXXXXXXXXXXXXXX       ",
"       XXXXXXXXXXXXXXXXXXXXXXXXXXXXXXXXXXXXXXXXXXXXXX       ",
"       XXXXXXXXXXXXXXXXXXXXXXXXXXXXXXXXXXXXXXXXXXXXXX       ",
"       XXXXXXXXXXXXXXXXXXXXXXXXXXXXXXXXXXXXXXXXXXXXXX       ",
"       XXXXXXXXXXXXXXXXXXXXXXXXXXXXXXXXXXXXXXXXXXXXXX       ",
"       XXXXXXXXXXXXXXXXXXXXXXXXXXXXXXXXXXXXXXXXXXXXXX       ",
"       XXXXXXXXXXXXXXXXXXXXXXXXXXXXXXXXXXXXXXXXXXXXXX       ",
"       XXXXXXXXXXXXXXXXXXXXXXXXXXXXXXXXXXXXXXXXXXXXXX       ",
"       XXXXXXXXXXXXXXXXXXXXXXXXXXXXXXXXXXXXXXXXXXXXXX       ",
"       XXXXXXXXXXXXXXXXXXXXXXXXXXXXXXXXXXXXXXXXXXXXXX       ",
"       XXXXXXXXXXXXXXXXXXXXXXXXXXXXXXXXXXXXXXXXXXXXXX       ",
"       XXXXXXXXXXXXXXXXXXXXXXXXXXXXXXXXXXXXXXXXXXXXXX       ",
"       XXXXXXXXXXXXXXXXXXXXXXXXXXXXXXXXXXXXXXXXXXXXXX       ",
"       XXXXXXXXXXXXXXXXXXXXXXXXXXXXXXXXXXXXXXXXXXXXXX       ",
"       XXXXXX    XXXXXXXXXX      XXXXXXXXXX    XXXXXX       ",
"       XXXXXX    XXXXXXXXXX      XXXXXXXXXX    XXXXXX       ",
"       XXXXXX    XXXXXXXXXX      XXXXXXXXXX    XXXXXX       ",
"       XXX          XXXXXXX      XXXXXXX          XXX       ",
"       XXX          XXXXXXX      XXXXXXX          XXX       ",
"       XXX          XXXXXXX      XXXXXXX          XXX       ",
"                                                            ",
"                                                            ",
"                                                            ",
"                                                            ",
"                                                            ",
"                                                            ",
"                                                            "
};
