/* XPM */
static char *exit_resized[] = {
/* columns rows colors chars-per-pixel */
"60 60 224 2 ",
"   c None",
".  c #0094FF",
"X  c #0095FF",
"o  c #0195FF",
"O  c #0295FF",
"+  c #0396FE",
"@  c #0296FF",
"#  c #0396FF",
"$  c #0496FE",
"%  c #0596FE",
"&  c #0497FF",
"*  c #0597FF",
"=  c #0697FE",
"-  c #0797FE",
";  c #0797FF",
":  c #0798FF",
">  c #0998FD",
",  c #0898FF",
"<  c #0B99FE",
"1  c #0C99FE",
"2  c #189CFB",
"3  c #199CFB",
"4  c #1F9EF9",
"5  c #1E9EFA",
"6  c #229FF9",
"7  c #2AA1F7",
"8  c #2FA3F7",
"9  c #24A0F8",
"0  c #25A0F8",
"q  c #26A0F8",
"w  c #28A1F8",
"e  c #31A3F6",
"r  c #31A4F6",
"t  c #32A4F6",
"y  c #33A4F6",
"u  c #34A4F5",
"i  c #36A5F5",
"p  c #37A5F5",
"a  c #39A6F5",
"s  c #3CA7F5",
"d  c #3EA7F4",
"f  c #3BA8F6",
"g  c #30A7FF",
"h  c #33A7FF",
"j  c #34A8FF",
"k  c #35A8FF",
"l  c #37A9FE",
"z  c #36A8FF",
"x  c #37A9FF",
"c  c #38A9FE",
"v  c #38A9FF",
"b  c #39AAFF",
"n  c #3AAAFF",
"m  c #3BAAFF",
"M  c #3CABFF",
"N  c #3DABFF",
"B  c #3EABFE",
"V  c #3EABFF",
"C  c #3FACFE",
"Z  c #59AFEF",
"A  c #5DB0EE",
"S  c #41A8F3",
"D  c #44A9F2",
"F  c #45A9F2",
"G  c #46A9F2",
"H  c #40A9F6",
"J  c #4BABF1",
"K  c #4CABF1",
"L  c #4BACF3",
"P  c #4DACF1",
"I  c #40ACFE",
"U  c #41ACFE",
"Y  c #43ADFE",
"T  c #46AEFD",
"R  c #4DB0FC",
"E  c #4FB1FC",
"W  c #53B2FB",
"Q  c #54B3FB",
"!  c #55B3FB",
"~  c #56B3FB",
"^  c #57B4FB",
"/  c #51B2FC",
"(  c #52B2FC",
")  c #59B4FB",
"_  c #5AB5FA",
"`  c #5BB5FA",
"'  c #5FB6F8",
"]  c #5EB6F9",
"[  c #5CB5FA",
"{  c #64B2ED",
"}  c #7FBAE7",
"|  c #72B6EA",
" . c #72B7EA",
".. c #77B8E9",
"X. c #7AB9E8",
"o. c #7BB9E8",
"O. c #7CBAE8",
"+. c #7DBAE8",
"@. c #7FBAE8",
"#. c #6CBAF6",
"$. c #61B7F9",
"%. c #62B7F8",
"&. c #65B8F9",
"*. c #65B9F9",
"=. c #68BAF8",
"-. c #69BAF8",
";. c #6CBBF8",
":. c #6DBBF8",
">. c #72BDF7",
",. c #81BBE7",
"<. c #83BCE7",
"1. c #84BCE7",
"2. c #86BCE6",
"3. c #87BDE6",
"4. c #8ABEE5",
"5. c #88BDE6",
"6. c #8DBEE5",
"7. c #8DBFE5",
"8. c #8EBFE5",
"9. c #88BEE8",
"0. c #AFC9DF",
"q. c #B3CADE",
"w. c #BECDDC",
"e. c #8FC1E7",
"r. c #95C1E3",
"t. c #91C0E4",
"y. c #93C0E4",
"u. c #92C1E6",
"i. c #94C2E6",
"p. c #9DC3E2",
"a. c #9EC3E2",
"s. c #9DCAEF",
"d. c #82C2F5",
"f. c #8BC5F4",
"g. c #93C8F2",
"h. c #94C8F2",
"j. c #95C8F2",
"k. c #97C9F2",
"l. c #99CAF1",
"z. c #9ACAF1",
"x. c #9BCAF1",
"c. c #98C9F2",
"v. c #9DCBF1",
"b. c #A2C5E1",
"n. c #A6C6E0",
"m. c #A6C6E1",
"M. c #AAC7E0",
"N. c #A1CCEF",
"B. c #A5CDEF",
"V. c #A6CDEE",
"C. c #A7CEEF",
"Z. c #A8CFEF",
"A. c #AACFEF",
"S. c #ABD0EF",
"D. c #ACD0EF",
"F. c #ADD0EF",
"G. c #AED1EE",
"H. c #AFD1EE",
"J. c #AED1EF",
"K. c #B0D1EE",
"L. c #B1D2EE",
"P. c #B3D2EE",
"I. c #B6D3ED",
"U. c #B7D4ED",
"Y. c #BBD5ED",
"T. c #BED6EC",
"R. c #BFD6EC",
"E. c #A0CCF0",
"W. c #A2CDF0",
"Q. c #A3CDF0",
"!. c #A5CEF0",
"~. c #A6CEF0",
"^. c #C5CFDB",
"/. c #C6CFDB",
"(. c #CBD1D9",
"). c #CAD0DA",
"_. c #CCD1D9",
"`. c #CED3DB",
"'. c #CAD2DC",
"]. c #CCD2DC",
"[. c #D6D4D7",
"{. c #D7D4D7",
"}. c #D8D5D7",
"|. c #D9D5D7",
" X c #D1D2D8",
".X c #D0D2D9",
"XX c #D2D3D8",
"oX c #D3D3D8",
"OX c #D4D3D8",
"+X c #D3D4DA",
"@X c #D5D4D8",
"#X c #D6D4D8",
"$X c #D5D5DA",
"%X c #D8D6D9",
"&X c #DBD7D9",
"*X c #CEDBEA",
"=X c #D5DDE7",
"-X c #D7DEE7",
";X c #DBDEE6",
":X c #D1DCE9",
">X c #D3DDE9",
",X c #D0DCEA",
"<X c #D6DEE9",
"1X c #D8DFE8",
"2X c #D9DFE8",
"3X c #DADFE8",
"4X c #DFE0E5",
"5X c #DAE0E8",
"6X c #DBE0E8",
"7X c #DCE0E8",
"8X c #DDE0E8",
"9X c #DEE1E8",
"0X c #E1E0E5",
"qX c #E3E1E5",
"wX c #E0E1E7",
"eX c #E1E2E7",
"rX c #E2E2E7",
"tX c #E3E2E7",
"yX c #E4E2E5",
"uX c #E5E2E5",
"iX c #E4E3E7",
"pX c #E5E3E7",
"aX c #E6E3E6",
"sX c #E7E4E6",
/* pixels */
"                                                                                                                        ",
"                                                                                                                        ",
"                                                                                                                        ",
"                                                                                                                        ",
"                                                                                                                        ",
"                                                                                                                        ",
"                                                                                                                        ",
"        n n n n n n n n n n n n n n n n n n n n n n n n n h : X X X X X X X X X X X X X X X X X X X X X X X X O         ",
"    n n n n n n n n n n n n n n n n n n n n n n n n n n n h : X X X X X X X X X X X X X X X X X X X X X X X X X X o     ",
"  n n n n n n n n n n n n n n n n n n n n n n n n n n n n h : X X X X X X X X X X X X X X X X X X X X X X X X X X X o   ",
"n n n n n n n n n n n n n n n n n n n n n n n n n n n n n h : X X X X X X X X X X X X X X X X X X X X X X X X X X X X @ ",
"n n n n n n n n n n n n n n n n n n n n n n n n n n n n n h : X X X X X X X X X X X X X X X X X X X X X X X X X X X X o ",
"n n n n n n n n n n n n n n n n n n n n n n n n n n n n n h ; X X X X X X X X X X X X X X X X X X X X X X X X X X X X X ",
"n n n n n n n b V U U U U U U U N b n n n b N N b n n n b z < . X X X X + $ X X X X X + > > > > > > > % X X X X X X X X ",
"n n n n n n b $.F.Y.Y.Y.Y.Y.Y.Y.~.! b n b ` S.Z.~ b n b ) V.u.7 . X . 9 4.8.7 X X X 6 3.b.b.b.b.b.b.b.t.e X X X X X X X ",
"n n n n n n C K.sXiXiXiXiXiXiXiXsXx.n n M Z.sXaXA.C b I J.uX&X5.@ X X @.|.|.4.+ X X X.|.[.[.[.[.[.[.[.|.r.= X X X X X X ",
"n n n n n b Y R.iXrXtXpXpXpXpXpXaXj.b n M !.pXtX3X=.k ;.7X0X%X1.O X + y.{.[.a.- X X  .{.{.[.oXoXoX@X{.|.7.% X X X X X X ",
"n n n n n b Y T.iXtX*XS.A.A.A.S.h.R b n v -.3XtXiXS.T H.pX0X'.a . X + y.{.[.p.- X X 2 | 6.a..XoXoXn.6.o.9 X X X X X X X ",
"n n n n n b Y T.iXpXC.M m M M M b b n n n C D.iXtX1Xz.2XtXqXe.= X X + y.{.[.p.- X X X X X y ).OXXXK . X . X X X X X X X ",
"n n n n n b Y T.iXpX~.n b n n n n n n n n v -.3XtXrXwXrXtX=Xf . X X + y.{.[.p.- X X X X . e ).OXXXJ . X X X X X X X X X ",
"n n n n n b Y T.iXpXZ.I C C C C m b n n n n C D.iXrXrXrXpXN.< X X X + y.{.[.p.- X X X X . e ).OXXXJ . X X X X X X X X X ",
"n n n n n b Y T.iXtX>XU.U.U.U.U.W.W b n n n v -.3XtXrXtX2X] * X X X + y.{.[.p.- X X X X . e ).OXXXJ . X X X X X X X X X ",
"n n n n n b Y T.iXrXtXiXpXpXpXpXaXz.b n n n n C G.iXrXiXA.l ; X X X + y.{.[.p.- X X X X . e ).OXXXJ . X X X X X X X X X ",
"n n n n n b Y T.iXrXtXpXpXpXpXpXaXk.b n n n b I L.iXrXiXF.c ; X X X + y.{.[.p.- X X X X . e ).OXXXJ . X X X X X X X X X ",
"n n n n n b Y T.iXtX,XH.H.H.H.H.l.E b n n n v ;.6XtXrXtX3X%.* X X X + y.{.[.p.- X X X X . e ).OXXXJ . X X X X X X X X X ",
"n n n n n b Y T.iXpXC.V N N N N n b n n n b I K.iXrXrXrXpXB.1 X X X + y.{.[.p.- X X X X . e ).OXXXJ . X X X X X X X X X ",
"n n n n n b Y T.iXpX~.n b n n n n n n n n v ;.7XtXrX9XrXtX-XH . X X + y.{.[.p.- X X X X . e ).OXXXJ . X X X X X X X X X ",
"n n n n n b Y T.iXpXZ.C B B B B m b n n b I K.iXtX<Xg.1XtXqXi.- X X + y.{.[.p.- X X X X . e ).OXXXJ . X X X X X X X X X ",
"n n n n n b Y T.iXtX:XP.P.P.P.P.v./ b n v :.7XtXiXC.Y S.pX0X].d . X + y.{.[.p.- X X X X . e ).OXXXJ . X X X X X X X X X ",
"n n n n n b Y R.iXrXtXpXpXpXpXpXaXc.b n M Z.pXtX1X&.k =.5X0X%X5.@ X + y.{.[.a.- X X X X . r ).OXXXK . X X X X X X X X X ",
"n n n n n n B F.sXpXpXpXpXpXpXpXaXc.b n M !.sXaX~.B b C A.yX&X1.O X X o.}.|.2.@ X X X X . 6 w.}.(.p . X X X X X X X X X ",
"n n n n n n b [ !.P.P.P.P.P.P.P.v./ b n b ^ Q.E.( b n b Q s.9.9 X X X 4 } <.9 X X X X X X @ P t.A - X X X X X X X X X X ",
"n n n n n n n b m B B B B B B B m b n n n b m m b n n n b j , . X X X X o O X X X X X X X X X + X X X X X X X X X X X X ",
"n n n n n n n n n n n n n n n n n n n n n n n n n n n n n h ; X X X X X X X X X X X X X X X X X X X X X X X X X X X X X ",
"n n n n n n n n n n n n n n n n n n n n n n n n n n n n n h : X X X X X X o . X X X X X X X X X X X X X X X X X X X X X ",
"n n n n n n n n n n n n n n n n n n n n n n n n n n n n n h : X X X X 5 +.,.0 . X X X X X X X X X X X X X X X X X X X X ",
"n n n n n n n n n n n n n n n n n n n n n n n n n n n n n h : X X X O ,.}.{.M.w . X X X X X X X X X X X X X X X X X X X ",
"n n n n n n n n n n n n n n n v x x x x x x x x x x x x v g & . . . . O.@XoX#XM.w . X X X X X X X X X X X X X X X X X X ",
"n n n n n n n n n n n n n n V _ *.&.&.&.&.&.&.&.&.&.&.&.*.' s i i i u Z ^.OXoX#XM.w . X X X X X X X X X X X X X X X X X ",
"n n n n n n n n n n n n n n d.<X8X8X8X8X8X8X8X8X8X8X8X8X8X;X`._._._._.(. XoXoXoX[.m.3 X X X X X X X X X X X X X X X X X ",
"n n n n n n n n n n n n n C I.aXrXrXrXrXrXrXrXrXrXrXrXrXtX0X$XoXOXOXOXOXoXoXoXoXoX XS . X X X X X X X X X X X X X X X X ",
"n n n n n n n n n n n n n n f.7XeXwXwXwXwXwXwXwXwXwXwXwXeX4X+X X X X X.XXXoXoXoX[.0.5 . X X X X X X X X X X X X X X X X ",
"n n n n n n n n n n n n n b I &.>.>.>.>.>.>.>.>.>.>.>.>.>.#.L F G G D { /.OXoX#Xq.t . X X X X X X X X X X X X X X X X X ",
"n n n n n n n n n n n n n n n v x x x x x x x x x x x x v g # . . . . ..@XoX#Xq.t . X X X X X X X X X X X X X X X X X X ",
"n n n n n n n n n n n n n n n n n n n n n n n n n n n n n h : X X X o <.|.{.q.t . X X X X X X X X X X X X X X X X X X X ",
"n n n n n n n n n n n n n n n n n n n n n n n n n n n n n h : X X X . q 7.t.8 . X X X X X X X X X X X X X X X X X X X X ",
"n n n n n n n n n n n n n n n n n n n n n n n n n n n n n h : X X X X X $ % . X X X X X X X X X X X X X X X X X X X X X ",
"n n n n n n n n n n n n n n n n n n n n n n n n n n n n n h : X X X X X X X X X X X X X X X X X X X X X X X X X X X X X ",
"n n n n n n n n n n n n n n n n n n n n n n n n n n n n n h : X X X X X X X X X X X X X X X X X X X X X X X X X X X X o ",
"n n n n n n n n n n n n n n n n n n n n n n n n n n n n n h : X X X X X X X X X X X X X X X X X X X X X X X X X X X X @ ",
"  n n n n n n n n n n n n n n n n n n n n n n n n n n n n h : X X X X X X X X X X X X X X X X X X X X X X X X X X X o   ",
"    n n n n n n n n n n n n n n n n n n n n n n n n n n n h : X X X X X X X X X X X X X X X X X X X X X X X X X X o     ",
"        n n n n n n n n n n n n n n n n n n n n n n n n n h : X X X X X X X X X X X X X X X X X X X X X X X X O         ",
"                                                                                                                        ",
"                                                                                                                        ",
"                                                                                                                        ",
"                                                                                                                        ",
"                                                                                                                        ",
"                                                                                                                        ",
"                                                                                                                        "
};
