/* XPM */
static char *pacman3left1684844407[] = {
/* columns rows colors chars-per-pixel */
"60 60 117 2 ",
"   c #000001",
".  c #010101",
"X  c #040303",
"o  c #030403",
"O  c #060705",
"+  c #080705",
"@  c #070806",
"#  c #090900",
"$  c #0C0D00",
"%  c #080806",
"&  c #0C0C07",
"*  c #0E0D06",
"=  c #0D0D09",
"-  c #121200",
";  c #11100A",
":  c #252500",
">  c #232207",
",  c #27270B",
"<  c #24240D",
"1  c #28270E",
"2  c #2A290E",
"3  c #333304",
"4  c #373800",
"5  c #3C3C06",
"6  c #37370D",
"7  c #393A09",
"8  c #2E2E11",
"9  c #303010",
"0  c #393911",
"q  c #3B3B13",
"w  c #3E3D10",
"e  c #404100",
"r  c #444307",
"t  c #484800",
"y  c #4F4F00",
"u  c #4B4C04",
"i  c #454508",
"p  c #585A00",
"a  c #4A4913",
"s  c #4B4B14",
"d  c #4F4E14",
"f  c #545410",
"g  c #515014",
"h  c #545314",
"j  c #575616",
"k  c #595813",
"l  c #5C5C12",
"z  c #636303",
"x  c #686A00",
"c  c #63640A",
"v  c #6F7001",
"b  c #757603",
"n  c #777800",
"m  c #73720B",
"M  c #7C7C0E",
"N  c #636410",
"B  c #646316",
"V  c #656516",
"C  c #696911",
"Z  c #6C6C14",
"A  c #706F17",
"S  c #7E7E11",
"D  c #7B7A16",
"F  c #88890F",
"G  c #919200",
"H  c #979806",
"J  c #999B03",
"K  c #9C9C06",
"L  c #848512",
"P  c #878713",
"I  c #8E8F15",
"U  c #959611",
"Y  c #969713",
"T  c #939414",
"R  c #9D9D10",
"E  c #A2A500",
"W  c #A9AB00",
"Q  c #BDBF01",
"!  c #B8B90C",
"~  c #BFBF0E",
"^  c #A0A010",
"/  c #B2B312",
"(  c #BABB10",
")  c #BFC104",
"_  c #C0C204",
"`  c #C6C806",
"'  c #C4C60B",
"]  c #C6C70D",
"[  c #CECF0D",
"{  c #CFD100",
"}  c #D2D400",
"|  c #D4D603",
" . c #D6D900",
".. c #D6D806",
"X. c #DCDE06",
"o. c #D4D50B",
"O. c #D4D60A",
"+. c #D0D10D",
"@. c #D1D20E",
"#. c #D8DA0A",
"$. c #DBDC08",
"%. c #DEE106",
"&. c #E5E702",
"*. c #E2E406",
"=. c #E4E604",
"-. c #E6E803",
";. c #E6E804",
":. c #E7EA04",
">. c #E6E906",
",. c #E8EA02",
"<. c #EAED00",
"1. c #E9EC03",
"2. c #EBEE02",
"3. c #ECEF00",
"4. c #E1E20A",
"5. c #EDF000",
"6. c #EFF100",
/* pixels */
"                                                                                                                        ",
"                                                                                                                        ",
"                                                                                                                        ",
"                                                                                                                        ",
"                                                                                                                        ",
"                                                                                                                        ",
"                                                            , I ' 4.<.5.<.4.] Y 8                                       ",
"                                                      0 ` <.<.<.5.5.<.<.<.<.<.<.<.<.[ r                                 ",
"                                                  y =.3.<.<.5.5.<.<.<.5.5.<.<.<.3.5.<.<.;.j                             ",
"                                              ; O.<.<.3.<.5.<.<.5.5.<.<.<.<.5.5.<.<.<.5.<.3.#.&                         ",
"                                            l 5.<.3.<.3.3.5.<.<.5.5.<.<.<.3.5.<.3.<.<.<.<.<.<.<.C                       ",
"                                          W <.3.3.<.<.<.<.<.5.5.<.<.<.5.5.<.<.<.<.5.5.5.<.5.<.<.5./                     ",
"                                        ] <.<.<.<.3.3.3.<.<.,.}  .<.<.5.5.<.<.<.3.5.5.<.5.<.<.<.3.<.]                   ",
"                                      ( <.<.<.5.3.<.5.3.<.:         _ <.<.<.5.5.<.<.<.5.5.<.<.<.<.5.<.]                 ",
"                                    Y 3.<.<.<.3.3.<.<.<.e             X.5.<.<.<.3.<.5.<.<.5.5.<.<.3.5.<.^               ",
"                                  t <.<.<.<.3.<.<.3.5.|               4 5.<.<.<.<.5.5.<.<.5.5.<.<.<.<.3.<.s             ",
"                                % ,.3.<.3.<.<.3.3.<.<.n                 1.<.5.5.<.<.<.5.5.<.<.<.<.5.<.5.<.;.%           ",
"                                / <.5.5.<.<.3.3.3.3.<.v                 <.5.<.<.<.5.5.<.<.5.5.<.<.5.<.<.5.5.]           ",
"                              > <.3.5.<.3.<.<.3.3.3.<.T                 <.5.5.<.<.<.<.5.5.<.<.5.<.5.<.5.5.5.<.w         ",
"                              { 5.3.<.3.<.<.3.3.3.<.<.&.              x <.<.<.<.5.5.<.<.<.5.5.<.<.5.<.5.5.<.3...        ",
"                            @ <.5.<.<.<.<.5.3.<.<.3.3.5.G           - <.<.5.<.5.<.<.<.5.5.<.<.5.<.<.<.<.<.<.<.<.8       ",
"                            L 5.5.<.5.<.<.<.<.3.3.<.<.<.5.! $     i ;.<.<.<.5.5.5.<.<.5.5.<.<.<.5.5.<.5.3.3.<.3.Q       ",
"                            %.<.<.5.5.3.3.<.<.<.<.<.5.3.<.<.<.<.<.<.<.<.<.<.5.<.<.<.<.5.5.<.<.5.5.<.<.<.<.<.<.5.<.      ",
"                            <.5.5.<.<.<.3.<.3.<.<.3.3.3.<.<.5.5.<.<.5.<.<.<.5.<.<.<.<.5.5.<.<.5.5.5.<.5.3.<.5.<.<.j     ",
"                          : <.5.5.<.<.<.3.3.<.<.<.<.<.<.5.5.<.<.5.5.<.5.<.<.<.<.5.<.<.<.<.5.5.<.<.<.5.<.5.<.5.5.5.)     ",
"                          c 5.<.<.5.5.3.<.<.3.3.3.3.5.3.<.<.5.5.<.<.<.5.5.5.<.<.5.5.5.<.<.5.5.<.<.5.<.<.<.<.<.<.<.-.    ",
"                          H <.5.5.<.<.<.3.3.3.<.<.3.<.<.5.5.<.<.5.<.<.5.<.5.<.<.<.<.5.<.<.5.5.<.<.5.<.<.<.<.5.5.<.5.=   ",
"                          ) 5.<.<.3.5.<.<.<.<.3.3.<.<.<.<.<.5.5.<.<.5.5.5.<.<.<.5.5.5.<.<.5.5.<.<.<.<.<.<.<.<.<.<.5.6   ",
"                          | 5.<.<.3.5.<.<.<.<.3.3.3.5.3.<.<.<.5.<.<.<.<.<.5.<.<.<.5.<.<.<.5.5.<.<.<.<.5.5.<.5.5.3.<.N   ",
"                          *.<.5.5.<.<.3.3.3.3.<.<.<.5.<.3.5.<.<.<.<.5.5.5.5.<.<.<.5.5.<.<.5.5.<.<.<.<.<.5.<.<.<.5.5.P   ",
"                          -.<.5.5.<.<.<.3.3.<.<.<.<.5.3.<.<.<.<.5.<.<.<.<.<.5.<.<.<.<.5.5.<.<.<.5.5.5.<.<.<.<.5.3.<.R   ",
"                          -.5.<.<.3.5.3.<.<.3.3.3.3.<.<.5.5.<.5.<.<.5.<.<.5.<.,.5.5.5.<.<.5.5.<.<.<.;.5.5.5.<.<.<.3.E   ",
"                          ;.<.5.5.<.<.<.3.3.3.<.<.3.5.3.<.<.5.5.<.<.<.<.3.3.<.<.<.5.3.<.<.5.5.<.<.<.5.5.<.5.<.<.5.<.E   ",
"                          ;.<.5.5.<.<.3.3.3.<.<.<.<.3.3.<.<.<.<.<.<.<.<.<.<.3.3.3.<.<.5.5.<.<.3.5.<.<.<.<.<.<.3.5.<.Y   ",
"                          -.5.<.<.3.3.<.<.<.3.3.3.3.<.5.5.5.<.<.<.3.<.<.<.3.3.3.<.<.<.5.5.<.<.3.3.<.<.<.<.<.<.<.3.<.S   ",
"                          | <.5.5.<.<.3.3.3.<.3.3.<.<.5.<.<.<.3.<.3.3.<.<.<.3.3.3.<.<.5.5.<.<.3.5.<.<.<.3.<.5.<.<.<.f   ",
"                          { <.5.5.<.<.<.<.<.3.3.3.<.<.<.3.3.<.5.3.5.3.3.3.<.<.<.<.3.3.<.<.5.5.<.<.3.5.3.<.<.<.3.3.<.<   ",
"                          K 5.<.<.3.5.3.<.<.<.3.3.3.<.<.<.5.<.<.3.3.<.3.3.3.<.<.3.5.3.<.<.5.5.<.<.<.3.3.3.<.<.<.5.3.%   ",
"                          p <.5.5.<.<.<.3.3.<.<.<.<.3.3.3.3.<.<.3.3.<.3.3.3.<.<.<.3.3.<.<.5.5.<.<.<.5.5.<.<.<.<.3.%.    ",
"                          $ <.5.5.<.<.3.3.3.3.<.3.<.3.3.<.<.5.5.<.<.3.<.<.<.3.3.3.<.<.5.5.<.<.3.5.<.<.<.<.5.5.3.<.J     ",
"                            ,.5.5.<.<.<.<.<.<.<.<.3.<.3.3.<.5.5.3.<.<.3.3.3.<.<.<.5.3.<.<.5.5.<.<.<.5.3.<.<.<.<.5.1     ",
"                            { 5.5.<.<.3.<.<.5.<.<.5.<.<.<.<.5.5.<.<.3.3.3.<.<.<.3.3.3.<.<.5.5.<.<.3.5.3.<.<.<.<.3.      ",
"                            u 5.<.3.5.<.<.<.3.5.3.<.3.<.<.5.<.<.3.3.3.<.<.<.3.3.<.<.<.5.5.<.<.3.5.<.<.<.3.5.3.<.L       ",
"                              <.3.3.3.3.<.<.<.<.3.3.3.3.5.5.<.<.3.5.<.<.<.3.3.3.3.<.<.5.5.<.<.3.5.<.<.<.<.5.3.<.*       ",
"                              G 5.5.<.<.3.3.<.3.<.3.<.<.5.5.<.<.3.3.<.<.<.3.3.3.<.<.<.5.5.<.<.3.5.<.<.<.3.5.5.^         ",
"                              O 3.<.5.3.3.3.3.<.3.<.3.<.5.5.<.<.3.3.3.<.<.<.3.3.3.<.<.5.5.<.<.3.5.<.<.<.<.5.,.;         ",
"                                Z <.<.3.<.<.3.3.<.3.<.3.<.<.5.5.<.<.<.3.3.3.<.<.<.5.3.<.<.5.5.<.<.<.3.5.3.<.M           ",
"                                  +.3.<.3.3.<.<.<.5.<.<.5.5.<.<.3.3.3.<.<.<.3.3.3.<.<.5.5.<.<.3.5.<.<.<.<.$.            ",
"                                  O <.<.<.<.<.5.3.3.5.<.5.5.<.<.3.3.3.<.<.3.3.3.5.<.<.5.5.<.<.<.5.<.<.<.,.#             ",
"                                    1 3.<.<.<.3.<.3.<.<.5.5.<.<.3.5.<.<.<.<.3.3.<.<.<.5.5.<.<.5.5.5.<.<.6               ",
"                                      a <.<.3.3.5.<.5.3.<.<.5.5.<.<.<.3.3.3.<.<.5.<.5.<.<.5.5.<.<.<.<.d                 ",
"                                        h 3.<.<.<.<.3.3.<.<.5.5.<.<.3.3.3.<.<.<.<.5.<.<.<.5.5.<.<.<.g                   ",
"                                          3 ,.5.<.5.5.3.<.<.5.5.<.<.<.3.3.3.<.<.5.5.<.<.<.5.5.<.,.5                     ",
"                                            = +.<.<.3.3.<.<.5.5.<.<.3.3.3.<.<.<.<.5.5.<.<.5.<.O.@                       ",
"                                                h ;.5.<.<.<.5.5.<.<.3.3.3.3.<.<.5.<.5.<.<.;.V @                         ",
"                                                  @ A =.<.<.3.3.<.<.<.3.3.<.<.<.<.5.5.-.D % X                           ",
"                                                        8 ! =.<.<.3.<.<.<.<.5.3.;.) 2 X                                 ",
"                                                            O & q z m n b V 7 = o     o                                 ",
"                                                                          X                                             ",
"                                                                  X         o X                                         "
};
