/* XPM */
static char *result[] = {
/* columns rows colors chars-per-pixel */
"60 60 155 2 ",
"   c #000001",
".  c #010001",
"X  c #010101",
"o  c #040303",
"O  c #030403",
"+  c #050503",
"@  c #070605",
"#  c #060705",
"$  c #070706",
"%  c #080705",
"&  c #070806",
"*  c #090900",
"=  c #0C0D00",
"-  c #0D0D00",
";  c #080806",
":  c #0C0C07",
">  c #0E0D06",
",  c #0E0E06",
"<  c #0D0D09",
"1  c #0E0D08",
"2  c #121200",
"3  c #11100A",
"4  c #13130A",
"5  c #232400",
"6  c #252500",
"7  c #232207",
"8  c #27270B",
"9  c #24240D",
"0  c #28270E",
"q  c #28280E",
"w  c #28280F",
"e  c #2A290E",
"r  c #333304",
"t  c #373800",
"y  c #3C3C06",
"u  c #37370D",
"i  c #36360E",
"p  c #393A09",
"a  c #2E2E11",
"s  c #303010",
"d  c #393911",
"f  c #3B3B13",
"g  c #3E3D10",
"h  c #404100",
"j  c #444307",
"k  c #484800",
"l  c #4F4F00",
"z  c #4B4C04",
"x  c #454508",
"c  c #585A00",
"v  c #4A4913",
"b  c #4B4B14",
"n  c #4F4E14",
"m  c #545410",
"M  c #515014",
"N  c #545314",
"B  c #555415",
"V  c #575616",
"C  c #595813",
"Z  c #5C5C12",
"A  c #636303",
"S  c #686A00",
"D  c #63640A",
"F  c #6F7001",
"G  c #757603",
"H  c #767800",
"J  c #777800",
"K  c #73720B",
"L  c #7C7C0E",
"P  c #636410",
"I  c #646316",
"U  c #656516",
"Y  c #696911",
"T  c #6C6C14",
"R  c #706F17",
"E  c #7E7E11",
"W  c #7B7A16",
"Q  c #88890F",
"!  c #919200",
"~  c #929302",
"^  c #979806",
"/  c #999B03",
"(  c #9C9C06",
")  c #848512",
"_  c #878713",
"`  c #8E8F15",
"'  c #959611",
"]  c #969612",
"[  c #969713",
"{  c #939414",
"}  c #9D9D10",
"|  c #A2A500",
" . c #A9AB00",
".. c #BBBE00",
"X. c #BDBF01",
"o. c #B8B90C",
"O. c #B9BA0F",
"+. c #BFBF0E",
"@. c #A0A010",
"#. c #B0B110",
"$. c #B2B312",
"%. c #BABB10",
"&. c #BFC104",
"*. c #C0C204",
"=. c #C6C806",
"-. c #CDCF02",
";. c #C4C60B",
":. c #C4C50C",
">. c #C4C50D",
",. c #C6C70C",
"<. c #C6C70D",
"1. c #C4C50E",
"2. c #CECF0D",
"3. c #CFD100",
"4. c #CED001",
"5. c #D2D400",
"6. c #D4D700",
"7. c #D4D603",
"8. c #D6D900",
"9. c #D6D806",
"0. c #DCDE06",
"q. c #D4D50B",
"w. c #D4D60A",
"e. c #D0D10D",
"r. c #D1D20E",
"t. c #D8DA0A",
"y. c #DBDC08",
"u. c #DEE103",
"i. c #DEE106",
"p. c #E5E702",
"a. c #E2E406",
"s. c #E4E604",
"d. c #E5E706",
"f. c #E7EA01",
"g. c #E7E902",
"h. c #E6E803",
"j. c #E6E804",
"k. c #E7EA04",
"l. c #E6E906",
"z. c #E8EB01",
"x. c #E9EB01",
"c. c #E8EA02",
"v. c #E9EC00",
"b. c #EAED00",
"n. c #EBED00",
"m. c #EBEE00",
"M. c #E9EC02",
"N. c #E9EC03",
"B. c #EBEE02",
"V. c #ECEF00",
"C. c #EDEF00",
"Z. c #E0E10B",
"A. c #E1E20A",
"S. c #EDF000",
"D. c #EFF100",
/* pixels */
"                                                                                                                        ",
"                                                                                                                        ",
"                                                                                                                        ",
"                                                                                                                        ",
"                                                                                                                        ",
"                                                                                                                        ",
"                                      a ' :.A.v.S.b.Z.;.` 8                                                             ",
"                                j 2.b.b.b.V.m.b.b.m.S.V.b.b.b.=.d                                                       ",
"                            V h.m.b.S.m.b.b.m.V.V.m.b.b.S.S.b.b.V.s.l                                                   ",
"                        , t.b.b.m.b.b.m.V.V.m.b.b.m.S.V.b.b.S.m.V.b.b.w.3                                               ",
"                      Y b.b.b.b.m.b.b.m.V.V.m.b.b.m.S.V.b.b.S.m.V.b.m.b.V.Z X                                           ",
"                  . #.S.b.m.S.b.S.V.S.m.b.b.m.V.V.m.b.b.S.S.b.b.b.b.m.V.V.m. .                                          ",
"                  >.m.V.b.b.b.S.m.V.S.m.b.b.m.V.V.m.b.8.5.c.b.b.V.V.m.b.b.b.b.<.                                        ",
"                ,.b.S.b.b.b.b.S.S.b.b.m.V.V.m.b.b.*.        6 b.V.S.m.V.V.m.b.b.%.X                                     ",
"              @.b.S.m.b.b.S.S.b.b.V.V.m.b.b.m.V.0.            h b.b.m.V.V.m.b.b.m.[                                     ",
"            b m.V.b.m.b.b.S.S.b.b.V.S.m.b.b.m.V.t               7.S.m.b.b.m.b.b.b.b.k                                   ",
"          ; N.b.V.V.m.b.V.b.b.S.S.b.b.m.V.V.m.N.                J b.m.V.V.m.b.V.m.V.f.%                                 ",
"          1.D.m.b.b.m.b.b.S.S.b.b.V.V.m.b.b.m.b.                F b.m.V.V.m.b.b.S.S.b.$.                                ",
"        g b.S.C.V.V.m.S.V.b.b.S.S.b.b.m.V.V.m.b.                { b.m.V.V.m.b.V.m.V.V.m.7                               ",
"      . 9.V.V.m.S.b.S.b.b.S.S.b.b.V.S.m.b.b.m.V.S               p.b.m.V.V.m.b.b.m.b.V.S.3.                              ",
"      e b.b.b.m.b.V.m.V.V.b.b.S.S.b.b.m.V.V.m.b.z.2           ! S.V.m.b.b.m.V.b.m.b.b.S.b.#                             ",
"      ..m.b.V.m.V.b.m.V.V.b.b.S.S.b.b.m.V.V.m.b.b.k.x     = o.S.b.b.m.V.V.m.b.b.m.V.b.S.S.)                             ",
"      b.m.n.b.m.b.b.m.S.V.b.b.S.S.b.b.m.V.V.m.b.b.m.b.b.b.b.b.b.V.S.m.b.b.m.b.V.m.S.V.b.b.i.                            ",
"    C b.m.V.b.m.S.b.S.V.V.b.b.S.S.b.b.m.V.V.m.b.b.m.b.b.S.S.b.b.V.V.m.b.b.m.b.V.m.b.b.S.S.b.                            ",
"    +.V.m.S.b.S.b.S.m.b.b.S.S.b.b.V.V.m.b.b.m.V.V.m.V.V.b.b.S.S.b.b.m.b.b.m.V.V.m.b.b.S.S.b.5                           ",
"    g.V.b.V.b.m.b.b.m.b.b.S.S.b.b.V.S.m.b.b.m.V.V.m.b.b.S.S.b.b.V.S.m.V.V.m.b.b.m.S.V.b.b.V.D                           ",
"  < V.b.m.V.b.m.b.b.m.b.b.S.S.b.b.V.V.m.b.b.m.V.V.S.V.V.b.b.S.S.b.b.m.b.b.m.V.V.m.b.b.S.S.b.^                           ",
"  i V.b.m.b.b.m.b.V.m.b.b.S.S.b.b.V.V.m.b.b.m.V.V.m.b.b.S.S.b.m.b.b.m.V.V.m.b.b.m.V.V.b.b.S.&.                          ",
"  P b.V.m.V.V.m.V.b.m.b.b.S.S.b.b.V.S.m.b.b.m.V.V.m.b.b.S.b.b.b.V.S.m.V.V.m.b.b.m.S.V.b.b.S.6.                          ",
"  Q S.S.m.V.b.C.b.b.m.b.b.S.S.b.b.V.S.m.b.b.m.V.V.m.b.b.b.b.S.m.b.S.m.b.b.m.V.V.m.b.b.S.S.b.a.                          ",
"  } b.V.m.b.b.C.b.b.m.V.V.b.b.S.S.b.b.m.V.V.m.b.b.m.V.V.m.b.b.b.V.V.m.b.b.m.V.V.m.b.b.S.S.b.j.                          ",
"  | V.b.m.b.V.m.V.b.m.b.b.S.S.b.b.V.S.m.b.b.m.V.b.m.b.b.S.b.S.S.b.b.m.V.V.m.b.b.m.S.V.b.b.S.k.                          ",
"  | b.S.m.b.V.m.V.V.m.b.b.S.S.b.b.V.S.m.b.b.m.V.b.b.b.b.S.S.b.b.V.S.m.b.b.m.V.V.m.b.b.S.S.b.j.                          ",
"  ] b.V.m.b.b.m.b.b.m.V.V.b.b.S.S.b.b.m.V.V.m.b.b.b.b.b.b.b.b.b.V.V.m.b.b.m.V.V.m.b.b.S.S.b.j.                          ",
"  E b.V.m.b.b.m.b.b.m.V.V.b.b.S.S.b.b.m.V.V.m.b.b.m.V.b.b.b.S.S.S.b.m.V.V.m.b.b.m.V.V.b.b.S.k.                          ",
"  m b.b.m.V.b.m.b.b.m.V.V.b.b.S.S.b.b.m.V.V.m.b.b.m.V.b.m.b.b.b.S.b.m.V.V.b.V.V.m.b.b.S.S.b.6.                          ",
"  9 b.V.m.b.b.m.V.V.m.b.b.S.S.b.b.V.V.m.b.b.m.V.V.m.S.V.S.b.V.m.b.b.m.V.V.m.b.b.m.b.b.S.S.b.-.                          ",
"  & V.S.m.b.b.m.V.V.m.b.b.S.S.b.b.V.S.m.b.b.m.V.V.m.V.V.b.b.S.m.b.b.m.V.V.m.b.b.m.S.V.b.b.V.(                           ",
"    u.V.m.b.b.m.V.V.m.b.b.S.S.b.b.V.V.m.b.b.m.V.V.m.V.V.b.b.V.m.V.V.m.b.b.m.V.V.m.b.b.S.S.b.c                           ",
"    / b.m.V.V.m.b.b.m.V.V.b.b.S.S.b.b.m.V.V.m.b.b.m.b.b.S.S.b.m.V.V.b.V.b.m.V.V.m.b.b.S.S.b.-                           ",
"    0 S.m.b.b.m.V.V.m.b.b.S.S.b.b.V.S.m.b.b.m.V.V.m.b.V.S.S.b.m.V.b.m.b.b.m.b.b.m.b.b.S.S.x.                            ",
"      V.m.b.b.m.V.V.m.b.b.S.S.b.b.V.V.m.b.b.m.V.V.m.b.b.S.S.b.b.b.b.S.b.b.m.b.b.m.b.b.S.S.4.                            ",
"      _ m.V.V.m.b.b.m.V.V.b.b.S.S.b.b.m.V.V.m.b.b.m.V.V.b.b.S.m.b.V.m.V.D.m.b.b.m.S.V.m.S.z                             ",
"      > M.V.V.m.b.b.m.S.V.b.b.S.S.b.b.m.V.V.m.b.b.m.S.V.b.b.S.S.V.V.m.V.b.m.b.b.m.V.V.m.b.                              ",
"        @.V.V.m.b.b.m.V.V.b.b.S.S.b.b.m.V.V.m.b.b.m.V.V.b.b.S.S.b.b.m.b.V.m.V.V.m.b.V.S.~                               ",
"        4 c.V.m.b.b.m.V.V.b.b.S.S.b.b.m.V.V.m.b.b.m.V.V.b.b.S.S.b.S.m.V.b.m.V.V.m.S.b.B.+                               ",
"          L b.m.V.V.m.b.b.S.S.b.b.V.S.m.b.b.m.V.V.m.b.b.S.S.b.b.V.b.m.b.V.m.b.b.m.b.V.T                                 ",
"            y.b.b.b.m.V.V.b.b.S.S.b.b.m.V.V.m.b.b.m.V.V.b.b.S.S.b.b.S.b.b.m.V.V.m.V.r.                                  ",
"            * c.b.b.m.V.V.b.b.S.S.b.b.m.V.V.m.b.b.m.V.V.b.b.S.S.b.S.C.V.V.m.b.b.b.b.@                                   ",
"              u v.b.m.S.V.b.b.S.S.b.b.m.V.V.m.b.b.m.S.V.b.b.S.S.b.b.m.b.V.m.b.b.m.q                                     ",
"                n b.b.b.b.S.S.b.b.V.V.m.b.b.m.V.V.m.b.b.S.S.b.b.V.S.m.V.V.m.b.v.v                                       ",
"                  M m.b.b.S.S.b.b.V.V.m.b.b.m.V.V.m.b.b.S.S.b.b.V.V.m.b.b.b.V.B                                         ",
"                    y z.b.S.S.b.b.V.S.m.b.b.m.V.V.m.b.b.S.S.b.b.V.S.m.b.V.c.r                                           ",
"                      $ q.m.V.b.b.V.V.m.b.b.m.V.V.m.b.b.S.S.b.b.V.V.m.b.e.< X                                           ",
"                        & U c.b.b.V.V.m.b.b.m.V.V.m.b.b.S.S.b.b.b.V.j.N                                                 ",
"                          o $ W j.V.S.m.b.b.m.V.V.m.b.b.S.V.b.b.d.R & X                                                 ",
"                                O s X.l.V.V.m.b.b.m.V.b.b.h.O.w X                                                       ",
"                                      O 1 p I G H K A f : &                                                             ",
"                                                                                                                        ",
"                                                                                                                        "
};
