/* XPM */
static char *result[] = {
/* columns rows colors chars-per-pixel */
"60 60 175 2 ",
"   c #000001",
".  c #010001",
"X  c #010101",
"o  c #040303",
"O  c #030403",
"+  c #040403",
"@  c #050503",
"#  c #070703",
"$  c #060505",
"%  c #070605",
"&  c #070706",
"*  c #080705",
"=  c #080706",
"-  c #070806",
";  c #090900",
":  c #0C0D00",
">  c #080904",
",  c #080806",
"<  c #0A0A07",
"1  c #0E0D04",
"2  c #0C0C07",
"3  c #0E0D06",
"4  c #0E0E06",
"5  c #0D0D09",
"6  c #0E0D08",
"7  c #121200",
"8  c #11100A",
"9  c #13130A",
"0  c #15140A",
"q  c #14140B",
"w  c #19190B",
"e  c #1A190A",
"r  c #1E1E0B",
"t  c #252500",
"y  c #232207",
"u  c #27270B",
"i  c #24240D",
"p  c #28270E",
"a  c #28280E",
"s  c #28280F",
"d  c #2A290E",
"f  c #2E2E0D",
"g  c #333304",
"h  c #373800",
"j  c #3F3F04",
"k  c #3C3C06",
"l  c #37370D",
"z  c #36360E",
"x  c #393A09",
"c  c #2E2E11",
"v  c #303010",
"b  c #353411",
"n  c #393911",
"m  c #3B3B13",
"M  c #3E3D10",
"N  c #404100",
"B  c #444307",
"V  c #484800",
"C  c #4F4F00",
"Z  c #454508",
"A  c #5A5A03",
"S  c #464613",
"D  c #4A4913",
"F  c #4B4B14",
"G  c #4F4E14",
"H  c #545410",
"J  c #555613",
"K  c #515014",
"L  c #545314",
"P  c #555415",
"I  c #575616",
"U  c #595813",
"Y  c #5C5C12",
"T  c #636303",
"R  c #686A00",
"E  c #6F7001",
"W  c #757603",
"Q  c #767800",
"!  c #777800",
"~  c #73720B",
"^  c #7C7C0E",
"/  c #636410",
"(  c #676710",
")  c #646316",
"_  c #656516",
"`  c #696911",
"'  c #6C6C14",
"]  c #706F17",
"[  c #7E7E11",
"{  c #7B7A16",
"}  c #88890F",
"|  c #919200",
" . c #929302",
".. c #999B03",
"X. c #878713",
"o. c #8C8C14",
"O. c #8C8D14",
"+. c #8D8E14",
"@. c #8E8F15",
"#. c #959611",
"$. c #969612",
"%. c #969713",
"&. c #939414",
"*. c #9D9D10",
"=. c #9FA00C",
"-. c #A2A500",
";. c #A9AB00",
":. c #BBBE00",
">. c #BDBF01",
",. c #B8B90C",
"<. c #B9BA0F",
"1. c #BFBF0E",
"2. c #A0A010",
"3. c #A5A614",
"4. c #B0B110",
"5. c #B2B312",
"6. c #B6B710",
"7. c #B5B613",
"8. c #B6B811",
"9. c #BABB10",
"0. c #C0C204",
"q. c #C6C806",
"w. c #C4C60B",
"e. c #C4C50C",
"r. c #C4C50D",
"t. c #C6C70C",
"y. c #C6C70D",
"u. c #C4C50E",
"i. c #CCCE0D",
"p. c #CECF0D",
"a. c #CFD100",
"s. c #D2D400",
"d. c #D4D603",
"f. c #D4D604",
"g. c #D6D900",
"h. c #D6D806",
"j. c #DCDE06",
"k. c #D1D20B",
"l. c #D4D50B",
"z. c #D4D60A",
"x. c #D0D10D",
"c. c #D1D20E",
"v. c #D4D50D",
"b. c #D8DA0A",
"n. c #DBDC08",
"m. c #DEE103",
"M. c #DEE007",
"N. c #DFE108",
"B. c #DEE009",
"V. c #E2E401",
"C. c #E5E702",
"Z. c #E4E604",
"A. c #E5E706",
"S. c #E7EA01",
"D. c #E7E902",
"F. c #E6E803",
"G. c #E6E804",
"H. c #E7EA04",
"J. c #E5E806",
"K. c #E6E906",
"L. c #E8EB01",
"P. c #E8EA02",
"I. c #E9EC00",
"U. c #EAED00",
"Y. c #EBED00",
"T. c #EBEE00",
"R. c #E9EC02",
"E. c #E9EC03",
"W. c #EBEE02",
"Q. c #ECEF00",
"!. c #EDEF00",
"~. c #E0E10B",
"^. c #E1E20A",
"/. c #EDF000",
"(. c #EFF100",
/* pixels */
"                                                                                                                        ",
"                                                                                                                        ",
"                                                                                                                        ",
"                                                                                                                        ",
"                                                                                                                        ",
"                                                                                                                        ",
"                                      c #.e.^.I./.U.~.w.@.u                                                             ",
"                                B p.U.U.U.Q.T.U.U.T./.Q.U.U.U.q.n                                                       ",
"                            I F.T.U./.T.U.U.T.Q.Q.T.U.U././.U.U.Q.Z.C                                                   ",
"                        4 b.U.U.T.U.U.T.Q.Q.T.U.U.T./.Q.U.U./.T.Q.U.U.z.8                                               ",
"                      ` U.U.U.U.T.U.U.T.Q.Q.T.U.U.T./.Q.U.U./.T.Q.U.T.U.Q.Y X                                           ",
"                  . 4./.U.T./.U./.Q./.T.U.U.T.Q.Q.T.U.U././.U.U.U.U.T.Q.Q.T.;.                                          ",
"                  r.T.Q.U.U.U./.T.Q./.T.U.U.T.Q.Q.T.U.g.s.P.U.U.Q.Q.T.U.U.U.U.y.                                        ",
"                t.U./.U.U.U.U././.U.U.T.Q.Q.T.U.U.0.        t U.Q./.T.Q.Q.T.U.U.9.X                                     ",
"              2.U./.T.U.U././.U.U.Q.Q.T.U.U.T.Q.j.            N U.U.T.Q.Q.T.U.U.T.%.                                    ",
"            F T.Q.U.T.U.U././.U.U.Q./.T.U.U.T.Q.h               d./.T.U.U.T.U.U.U.U.V                                   ",
"          , E.U.Q.Q.T.U.Q.U.U././.U.U.T.Q.Q.T.E.                ! U.T.Q.Q.T.U.Q.T.Q.S.*                                 ",
"          u.(.T.U.U.T.U.U././.U.U.Q.Q.T.U.U.T.U.                E U.T.Q.Q.T.U.U././.U.5.                                ",
"        M U./.!.Q.Q.T./.Q.U.U././.U.U.T.Q.Q.T.U.                &.U.T.Q.Q.T.U.Q.T.Q.Q.T.y                               ",
"      . h.Q.Q.T./.U./.U.U././.U.U.Q./.T.U.U.T.Q.R               C.U.T.Q.Q.T.U.U.T.U.Q./.a.                              ",
"      d U.U.U.T.U.Q.T.Q.Q.U.U././.U.U.T.Q.Q.T.U.L.7           | /.Q.T.U.U.T.Q.U.T.U.U./.3.                              ",
"      :.T.U.Q.T.Q.U.T.Q.Q.U.U././.U.U.T.Q.Q.T.U.U.H.Z     : ,./.U.U.T.Q.Q.T.U.U.T.Q.v.e $                               ",
"      U.T.Y.U.T.U.U.T./.Q.U.U././.U.U.T.Q.Q.T.U.U.T.U.U.U.U.U.U.Q./.T.U.U.T.U.Q.V.j -                                   ",
"    U U.T.Q.U.T./.U./.Q.Q.U.U././.U.U.T.Q.Q.T.U.U.T.U.U././.U.U.Q.Q.T.U.U.T.E.( -                                       ",
"    1.Q.T./.U./.U./.T.U.U././.U.U.Q.Q.T.U.U.T.Q.Q.T.Q.Q.U.U././.U.U.T.U.I.o.&                                           ",
"    D.Q.U.Q.U.T.U.U.T.U.U././.U.U.Q./.T.U.U.T.Q.Q.T.U.U././.U.U.Q./.T.7.  o                                             ",
"  5 Q.U.T.Q.U.T.U.U.T.U.U././.U.U.Q.Q.T.U.U.T.Q.Q./.Q.Q.U.U././.U.f.w =                                                 ",
"  z Q.U.T.U.U.T.U.Q.T.U.U././.U.U.Q.Q.T.U.U.T.Q.Q.T.U.U././.U.K.S %                                                     ",
"  / U.Q.T.Q.Q.T.Q.U.T.U.U././.U.U.Q./.T.U.U.T.Q.Q.T.U.U./.U.! O                                                         ",
"  } /./.T.Q.U.!.U.U.T.U.U././.U.U.Q./.T.U.U.T.Q.Q.T.U.U.=.>                                                             ",
"  *.U.Q.T.U.U.!.U.U.T.Q.Q.U.U././.U.U.T.Q.Q.T.U.U.T.u.6                                                                 ",
"  -.Q.U.T.U.Q.T.Q.U.T.U.U././.U.U.Q./.T.U.U.T.Q.N.r                                                                     ",
"  -.U./.T.U.Q.T.Q.Q.T.U.U././.U.U.Q./.T.U.U.T.Q.U.9.1 -                                                                 ",
"  $.U.Q.T.U.U.T.U.U.T.Q.Q.U.U././.U.U.T.Q.Q.T.U.U.U.E.O.- &                                                             ",
"  [ U.Q.T.U.U.T.U.U.T.Q.Q.U.U././.U.U.T.Q.Q.T.U.U.T.Q.U.J.A                                                             ",
"  H U.U.T.Q.U.T.U.U.T.Q.Q.U.U././.U.U.T.Q.Q.T.U.U.T.Q.U.T.U.M.b                                                         ",
"  i U.Q.T.U.U.T.Q.Q.T.U.U././.U.U.Q.Q.T.U.U.T.Q.Q.T./.Q./.U.Q.T.i.0                                                     ",
"  - Q./.T.U.U.T.Q.Q.T.U.U././.U.U.Q./.T.U.U.T.Q.Q.T.Q.Q.U.U./.T.U.U.8.#                                                 ",
"    m.Q.T.U.U.T.Q.Q.T.U.U././.U.U.Q.Q.T.U.U.T.Q.Q.T.Q.Q.U.U.Q.T.Q.Q.T.U.+.+                                             ",
"    ..U.T.Q.Q.T.U.U.T.Q.Q.U.U././.U.U.T.Q.Q.T.U.U.T.U.U././.U.T.Q.Q.U.Q.U.G.J                                           ",
"    p /.T.U.U.T.Q.Q.T.U.U././.U.U.Q./.T.U.U.T.Q.Q.T.U.Q././.U.T.Q.U.T.U.U.T.U.B.f                                       ",
"      Q.T.U.U.T.Q.Q.T.U.U././.U.U.Q.Q.T.U.U.T.Q.Q.T.U.U././.U.U.U.U./.U.U.T.U.U.T.k.q                                   ",
"      X.T.Q.Q.T.U.U.T.Q.Q.U.U././.U.U.T.Q.Q.T.U.U.T.Q.Q.U.U./.T.U.Q.T.Q.(.T.U.U.T./.Q.6.<                               ",
"      3 R.Q.Q.T.U.U.T./.Q.U.U././.U.U.T.Q.Q.T.U.U.T./.Q.U.U././.Q.Q.T.Q.U.T.U.U.T.Q.Q.T.U.                              ",
"        2.Q.Q.T.U.U.T.Q.Q.U.U././.U.U.T.Q.Q.T.U.U.T.Q.Q.U.U././.U.U.T.U.Q.T.Q.Q.T.U.Q./. .                              ",
"        9 P.Q.T.U.U.T.Q.Q.U.U././.U.U.T.Q.Q.T.U.U.T.Q.Q.U.U././.U./.T.Q.U.T.Q.Q.T./.U.W.@                               ",
"          ^ U.T.Q.Q.T.U.U././.U.U.Q./.T.U.U.T.Q.Q.T.U.U././.U.U.Q.U.T.U.Q.T.U.U.T.U.Q.'                                 ",
"            n.U.U.U.T.Q.Q.U.U././.U.U.T.Q.Q.T.U.U.T.Q.Q.U.U././.U.U./.U.U.T.Q.Q.T.Q.c.                                  ",
"            ; P.U.U.T.Q.Q.U.U././.U.U.T.Q.Q.T.U.U.T.Q.Q.U.U././.U./.!.Q.Q.T.U.U.U.U.%                                   ",
"              l I.U.T./.Q.U.U././.U.U.T.Q.Q.T.U.U.T./.Q.U.U././.U.U.T.U.Q.T.U.U.T.a                                     ",
"                G U.U.U.U././.U.U.Q.Q.T.U.U.T.Q.Q.T.U.U././.U.U.Q./.T.Q.Q.T.U.I.D                                       ",
"                  K T.U.U././.U.U.Q.Q.T.U.U.T.Q.Q.T.U.U././.U.U.Q.Q.T.U.U.U.Q.P                                         ",
"                    k L.U././.U.U.Q./.T.U.U.T.Q.Q.T.U.U././.U.U.Q./.T.U.Q.P.g                                           ",
"                      & l.T.Q.U.U.Q.Q.T.U.U.T.Q.Q.T.U.U././.U.U.Q.Q.T.U.x.5 X                                           ",
"                        - _ P.U.U.Q.Q.T.U.U.T.Q.Q.T.U.U././.U.U.U.Q.G.L                                                 ",
"                          o & { G.Q./.T.U.U.T.Q.Q.T.U.U./.Q.U.U.A.] - X                                                 ",
"                                O v >.K.Q.Q.T.U.U.T.Q.U.U.F.<.s X                                                       ",
"                                      O 6 x ) W Q ~ T m 2 -                                                             ",
"                                                                                                                        ",
"                                                                                                                        "
};
