/* XPM */
static char *result[] = {
/* columns rows colors chars-per-pixel */
"60 60 178 2 ",
"   c #000001",
".  c #010001",
"X  c #010101",
"o  c #020300",
"O  c #040303",
"+  c #030403",
"@  c #050503",
"#  c #070605",
"$  c #060705",
"%  c #070705",
"&  c #070706",
"*  c #080705",
"=  c #070806",
"-  c #090900",
";  c #0C0D00",
":  c #0D0D00",
">  c #080806",
",  c #0C0C07",
"<  c #0E0D06",
"1  c #0E0E06",
"2  c #0D0D09",
"3  c #0E0D08",
"4  c #121200",
"5  c #141400",
"6  c #161600",
"7  c #1E1E00",
"8  c #11100A",
"9  c #13130A",
"0  c #202000",
"q  c #232400",
"w  c #252500",
"e  c #232207",
"r  c #25240B",
"t  c #27270B",
"y  c #24240D",
"u  c #28270E",
"i  c #28280E",
"p  c #28280F",
"a  c #2A290E",
"s  c #353600",
"d  c #333304",
"f  c #373800",
"g  c #3C3C06",
"h  c #33330E",
"j  c #37370D",
"k  c #36360E",
"l  c #393A09",
"z  c #2E2E11",
"x  c #303010",
"c  c #393911",
"v  c #3B3B13",
"b  c #3E3D10",
"n  c #404100",
"m  c #444307",
"M  c #484800",
"N  c #4D4E00",
"B  c #4F4F00",
"V  c #4B4C04",
"C  c #454508",
"Z  c #585A00",
"A  c #5E5F00",
"S  c #5C5C08",
"D  c #4A4913",
"F  c #4B4B14",
"G  c #4F4E14",
"H  c #545410",
"J  c #515014",
"K  c #545314",
"L  c #555415",
"P  c #575616",
"I  c #595813",
"U  c #5C5C12",
"Y  c #636303",
"T  c #686A00",
"R  c #6F7001",
"E  c #757603",
"W  c #767800",
"Q  c #777800",
"!  c #73720B",
"~  c #7C7C0E",
"^  c #636410",
"/  c #646316",
"(  c #656516",
")  c #696911",
"_  c #6C6C14",
"`  c #706F17",
"'  c #7E7E11",
"]  c #7B7A16",
"[  c #818203",
"{  c #88890F",
"}  c #8E8F0D",
"|  c #919200",
" . c #929302",
".. c #989900",
"X. c #999B03",
"o. c #9D9E06",
"O. c #848512",
"+. c #878713",
"@. c #8E8F15",
"#. c #919212",
"$. c #959611",
"%. c #969612",
"&. c #969713",
"*. c #939414",
"=. c #9D9D10",
"-. c #A2A500",
";. c #A1A205",
":. c #A6A800",
">. c #A6A803",
",. c #A9AB00",
"<. c #B2B400",
"1. c #BBBE00",
"2. c #BABD02",
"3. c #BDBF01",
"4. c #B8B90C",
"5. c #B9BA0F",
"6. c #BFBF0E",
"7. c #A0A010",
"8. c #A8A912",
"9. c #B0B110",
"0. c #B2B312",
"q. c #BABB10",
"w. c #C0C204",
"e. c #C6C806",
"r. c #C4C60B",
"t. c #C4C50C",
"y. c #C4C50D",
"u. c #C6C70C",
"i. c #C6C70D",
"p. c #C4C50E",
"a. c #CECF0D",
"s. c #CFD100",
"d. c #CED001",
"f. c #D2D400",
"g. c #D4D603",
"h. c #D6D900",
"j. c #D6D806",
"k. c #DCDE06",
"l. c #D1D20A",
"z. c #D4D50B",
"x. c #D4D60A",
"c. c #D0D10D",
"v. c #D1D20E",
"b. c #D8DA0A",
"n. c #DBDC08",
"m. c #D8D90C",
"M. c #DEE002",
"N. c #DEE103",
"B. c #DEE106",
"V. c #DFE00A",
"C. c #E5E702",
"Z. c #E2E407",
"A. c #E4E604",
"S. c #E5E706",
"D. c #E7EA01",
"F. c #E7E902",
"G. c #E6E803",
"H. c #E7EA03",
"J. c #E6E804",
"K. c #E7EA04",
"L. c #E6E906",
"P. c #E8EB01",
"I. c #E9EB01",
"U. c #E8EA02",
"Y. c #E9EC00",
"T. c #EAED00",
"R. c #EBED00",
"E. c #EBEE00",
"W. c #E9EC02",
"Q. c #E9EC03",
"!. c #EBEE02",
"~. c #ECEF00",
"^. c #EDEF00",
"/. c #E0E10B",
"(. c #E1E20A",
"). c #E3E508",
"_. c #EDF000",
"`. c #EFF100",
/* pixels */
"                                                                                                                        ",
"                                                                                                                        ",
"                                                                                                                        ",
"                                                                                                                        ",
"                                                                                                                        ",
"                                                                                                                        ",
"                                      z $.t.(.Y._.T./.r.@.t                                                             ",
"                                m a.T.T.T.~.E.T.T.E._.~.T.T.T.e.c                                                       ",
"                            P G.E.T._.E.T.T.E.~.~.E.T.T._._.T.T.~.A.B                                                   ",
"                        1 b.T.T.E.T.T.E.~.~.E.T.T.E._.~.T.T._.E.~.T.T.x.8                                               ",
"                      ) T.T.T.T.E.T.T.E.~.~.E.T.T.E._.~.T.T._.E.~.T.E.T.~.U X                                           ",
"                  . 9._.T.E._.T._.~._.E.T.T.E.~.~.E.T.T._._.T.T.T.T.E.~.~.E.,.                                          ",
"                  y.E.~.T.T.T._.E.~._.E.T.T.E.~.~.E.T.h.f.U.T.T.~.~.E.T.T.T.T.i.                                        ",
"                u.T._.T.T.T.T._._.T.T.E.~.~.E.T.T.w.        w T.~._.E.~.~.E.T.T.q.X                                     ",
"              7.T._.E.T.T._._.T.T.~.~.E.T.T.E.~.k.            n T.T.E.~.~.E.T.T.E.&.                                    ",
"            F E.~.T.E.T.T._._.T.T.~._.E.T.T.E.~.f               g._.E.T.T.E.T.T.T.T.M                                   ",
"          > Q.T.~.~.E.T.~.T.T._._.T.T.E.~.~.E.Q.                Q T.E.~.~.E.T.~.E.~.D.*                                 ",
"          p.`.E.T.T.E.T.T._._.T.T.~.~.E.T.T.E.T.                R T.E.~.~.E.T.T._._.T.0.                                ",
"        b T._.^.~.~.E._.~.T.T._._.T.T.E.~.~.E.T.                *.T.E.~.~.E.T.~.E.~.~.E.e                               ",
"      . j.~.~.E._.T._.T.T._._.T.T.~._.E.T.T.E.~.T               C.T.E.~.~.E.T.T.E.T.~._.s.                              ",
"      a T.T.T.E.T.~.E.~.~.T.T._._.T.T.E.~.~.E.T.P.4           | _.~.E.T.T.E.~.T.E.T.T._.T.$                             ",
"      1.E.T.~.E.~.T.E.~.~.T.T._._.T.T.E.~.~.E.T.T.K.C     ; 4._.T.T.E.~.~.E.T.T.E.~.T._._.O.                            ",
"      T.E.R.T.E.T.T.E._.~.T.T._._.T.T.E.~.~.E.T.T.E.T.T.T.T.T.T.~._.E.T.T.E.T.~.E._.~.T.T.B.                            ",
"    I T.E.~.T.E._.T._.~.~.T.T._._.T.T.E.~.~.E.T.T.E.T.T._._.T.T.~.~.E.T.T.E.T.~.E.T.T._._.T.                            ",
"    6.~.E._.T._.T._.E.T.T._._.T.T.~.~.E.T.T.E.~.~.E.~.~.T.T._._.T.T.E.T.T.E.~.~.E.T.T._._.T.q                           ",
"    F.~.T.~.T.E.T.T.E.T.T._._.T.T.~._.E.T.T.E.~.~.E.T.T._._.T.T.~._.E.~.~.E.T.T.E._.~.T.T.~.S                           ",
"  2 ~.T.E.~.T.E.T.T.E.T.T._._.T.T.~.~.E.T.T.E.~.~._.~.~.T.T._._.T.T.E.T.T.E.~.~.E.T.).o.7                               ",
"  k ~.T.E.T.T.E.T.~.E.T.T._._.T.T.~.~.E.T.T.E.~.~.E.T.T._._.T.E.T.T.E.~.~.E.Q.l.A o                                     ",
"  ^ T.~.E.~.~.E.~.T.E.T.T._._.T.T.~._.E.T.T.E.~.~.E.T.T._.T.T.T.~._.E.S.} 5                                             ",
"  { _._.E.~.T.^.T.T.E.T.T._._.T.T.~._.E.T.T.E.~.~.E.T.T.T.T._.E.2.N                                                     ",
"  =.T.~.E.T.T.^.T.T.E.~.~.T.T._._.T.T.E.~.~.E.T.T.E.~.~.m.[ %                                                           ",
"  -.~.T.E.T.~.E.~.T.E.T.T._._.T.T.~._.E.T.T.E.~.Y.<.0                                                                   ",
"  -.T._.E.T.~.E.~.~.E.T.T._._.T.T.~._.E.T.T.E.~.T.T.G.#.s                                                               ",
"  %.T.~.E.T.T.E.T.T.E.~.~.T.T._._.T.T.E.~.~.E.T.T.T.T.T.T.T.V...r                                                       ",
"  ' T.~.E.T.T.E.T.T.E.~.~.T.T._._.T.T.E.~.~.E.T.T.E.~.T.T.T._._._.T.M.>.6                                               ",
"  H T.T.E.~.T.E.T.T.E.~.~.T.T._._.T.T.E.~.~.E.T.T.E.~.T.E.T.T.T._.T.E.~.~.E.Z.8.w                                       ",
"  y T.~.E.T.T.E.~.~.E.T.T._._.T.T.~.~.E.T.T.E.~.~.E._.~._.T.~.E.T.T.E.~.~.E.T.T.E.T.H.:.h                               ",
"  = ~._.E.T.T.E.~.~.E.T.T._._.T.T.~._.E.T.T.E.~.~.E.~.~.T.T._.E.T.T.E.~.~.E.T.T.E._.~.T.T.~.;.                          ",
"    N.~.E.T.T.E.~.~.E.T.T._._.T.T.~.~.E.T.T.E.~.~.E.~.~.T.T.~.E.~.~.E.T.T.E.~.~.E.T.T._._.T.Z                           ",
"    X.T.E.~.~.E.T.T.E.~.~.T.T._._.T.T.E.~.~.E.T.T.E.T.T._._.T.E.~.~.T.~.T.E.~.~.E.T.T._._.T.:                           ",
"    u _.E.T.T.E.~.~.E.T.T._._.T.T.~._.E.T.T.E.~.~.E.T.~._._.T.E.~.T.E.T.T.E.T.T.E.T.T._._.I.                            ",
"      ~.E.T.T.E.~.~.E.T.T._._.T.T.~.~.E.T.T.E.~.~.E.T.T._._.T.T.T.T._.T.T.E.T.T.E.T.T._._.d.                            ",
"      +.E.~.~.E.T.T.E.~.~.T.T._._.T.T.E.~.~.E.T.T.E.~.~.T.T._.E.T.~.E.~.`.E.T.T.E._.~.E._.V                             ",
"      < W.~.~.E.T.T.E._.~.T.T._._.T.T.E.~.~.E.T.T.E._.~.T.T._._.~.~.E.~.T.E.T.T.E.~.~.E.T.                              ",
"        7.~.~.E.T.T.E.~.~.T.T._._.T.T.E.~.~.E.T.T.E.~.~.T.T._._.T.T.E.T.~.E.~.~.E.T.~._. .                              ",
"        9 U.~.E.T.T.E.~.~.T.T._._.T.T.E.~.~.E.T.T.E.~.~.T.T._._.T._.E.~.T.E.~.~.E._.T.!.@                               ",
"          ~ T.E.~.~.E.T.T._._.T.T.~._.E.T.T.E.~.~.E.T.T._._.T.T.~.T.E.T.~.E.T.T.E.T.~._                                 ",
"            n.T.T.T.E.~.~.T.T._._.T.T.E.~.~.E.T.T.E.~.~.T.T._._.T.T._.T.T.E.~.~.E.~.v.                                  ",
"            - U.T.T.E.~.~.T.T._._.T.T.E.~.~.E.T.T.E.~.~.T.T._._.T._.^.~.~.E.T.T.T.T.#                                   ",
"              j Y.T.E._.~.T.T._._.T.T.E.~.~.E.T.T.E._.~.T.T._._.T.T.E.T.~.E.T.T.E.i                                     ",
"                G T.T.T.T._._.T.T.~.~.E.T.T.E.~.~.E.T.T._._.T.T.~._.E.~.~.E.T.Y.D                                       ",
"                  J E.T.T._._.T.T.~.~.E.T.T.E.~.~.E.T.T._._.T.T.~.~.E.T.T.T.~.L                                         ",
"                    g P.T._._.T.T.~._.E.T.T.E.~.~.E.T.T._._.T.T.~._.E.T.~.U.d                                           ",
"                      & z.E.~.T.T.~.~.E.T.T.E.~.~.E.T.T._._.T.T.~.~.E.T.c.2 X                                           ",
"                        = ( U.T.T.~.~.E.T.T.E.~.~.E.T.T._._.T.T.T.~.J.K                                                 ",
"                          O & ] J.~._.E.T.T.E.~.~.E.T.T._.~.T.T.S.` = X                                                 ",
"                                + x 3.L.~.~.E.T.T.E.~.T.T.G.5.p X                                                       ",
"                                      + 3 l / E W ! Y v , =                                                             ",
"                                                                                                                        ",
"                                                                                                                        "
};
