/* XPM */
static char *pacman1left_png1684844406[] = {
/* columns rows colors chars-per-pixel */
"60 60 122 2 ",
"   c #000001",
".  c #040303",
"X  c #030403",
"o  c #070703",
"O  c #070605",
"+  c #070806",
"@  c #090900",
"#  c #0C0D00",
"$  c #080806",
"%  c #0A0A07",
"&  c #0C0C07",
"*  c #0D0D09",
"=  c #121200",
"-  c #11100A",
";  c #15140A",
":  c #14140B",
">  c #19190B",
",  c #1A190A",
"<  c #1E1E0B",
"1  c #252500",
"2  c #232207",
"3  c #27270B",
"4  c #24240D",
"5  c #28280F",
"6  c #2E2E0D",
"7  c #333304",
"8  c #373800",
"9  c #3F3F04",
"0  c #3C3C06",
"q  c #37370D",
"w  c #36360E",
"e  c #393A09",
"r  c #2E2E11",
"t  c #303010",
"y  c #353411",
"u  c #393911",
"i  c #3E3D10",
"p  c #404100",
"a  c #484800",
"s  c #4F4F00",
"d  c #454508",
"f  c #5A5A03",
"g  c #464613",
"h  c #4A4913",
"j  c #4B4B14",
"k  c #4F4E14",
"l  c #555613",
"z  c #515014",
"x  c #555415",
"c  c #575616",
"v  c #595813",
"b  c #5C5C12",
"n  c #636303",
"m  c #686A00",
"M  c #6F7001",
"N  c #757603",
"B  c #777800",
"V  c #73720B",
"C  c #7C7C0E",
"Z  c #636410",
"A  c #676710",
"S  c #646316",
"D  c #656516",
"F  c #696911",
"G  c #6C6C14",
"H  c #706F17",
"J  c #7E7E11",
"K  c #7B7A16",
"L  c #88890F",
"P  c #919200",
"I  c #999B03",
"U  c #878713",
"Y  c #8C8D14",
"T  c #8E8F15",
"R  c #969612",
"E  c #969713",
"W  c #939414",
"Q  c #9D9D10",
"!  c #9FA00C",
"~  c #A2A500",
"^  c #A9AB00",
"/  c #BDBF01",
"(  c #B8B90C",
")  c #B9BA0F",
"_  c #BFBF0E",
"`  c #A0A010",
"'  c #A5A614",
"]  c #B2B312",
"[  c #B6B710",
"{  c #B5B613",
"}  c #B6B811",
"|  c #BABB10",
" . c #C0C204",
".. c #C6C806",
"X. c #C4C60B",
"o. c #C6C70D",
"O. c #CCCE0D",
"+. c #CFD100",
"@. c #D2D400",
"#. c #D4D603",
"$. c #D4D604",
"%. c #D6D900",
"&. c #DCDE06",
"*. c #D4D60A",
"=. c #D0D10D",
"-. c #D4D50D",
";. c #D8DA0A",
":. c #DBDC08",
">. c #DEE103",
",. c #DEE009",
"<. c #E2E401",
"1. c #E5E702",
"2. c #E4E604",
"3. c #E7E902",
"4. c #E6E804",
"5. c #E8EA02",
"6. c #EAED00",
"7. c #E9EC03",
"8. c #ECEF00",
"9. c #E1E20A",
"0. c #EDF000",
"q. c #EFF100",
/* pixels */
"                                                                                                                        ",
"                                                                                                                        ",
"                                                                                                                        ",
"                                                                                                                        ",
"                                                                                                                        ",
"                                                                                                                        ",
"                                                            3 T o.9.6.0.6.9.o.E r                                       ",
"                                                      u ..6.6.6.0.0.6.6.6.6.8.6.6.6.O.d                                 ",
"                                                  s 2.8.6.6.0.0.6.6.6.8.8.6.6.6.8.0.6.6.5.x                             ",
"                                              - *.6.6.8.6.0.6.6.8.0.8.6.6.8.8.8.6.6.6.8.6.8.;.*                         ",
"                                            b 0.6.8.6.8.8.0.6.6.8.0.6.6.6.8.8.8.8.6.6.6.6.6.6.6.F                       ",
"                                          ^ 6.8.8.6.6.6.6.6.0.0.6.6.8.8.8.6.6.6.6.0.8.0.6.0.6.6.0.]                     ",
"                                        o.6.6.6.6.8.8.8.6.6.5.@.%.6.6.0.8.8.6.6.8.0.0.6.0.6.6.6.8.6.o.                  ",
"                                      | 6.6.6.0.8.6.0.8.6.1          .6.6.6.8.8.6.6.6.0.0.6.6.6.6.0.6.o.                ",
"                                    E 8.6.6.6.8.8.6.6.6.p             &.8.6.6.6.6.8.0.6.6.0.0.6.6.6.0.6.`               ",
"                                  a 6.6.6.6.8.6.6.8.0.#.              8 8.8.6.6.8.0.8.6.6.0.0.6.6.8.6.8.6.j             ",
"                                $ 5.8.6.0.6.6.0.6.8.6.B                 7.6.8.8.6.6.6.0.0.6.6.8.6.6.8.8.6.6.$           ",
"                                ] 6.0.0.6.6.6.0.0.6.6.M                 6.8.6.6.8.8.8.6.6.0.0.6.6.8.8.5.6.0.o.          ",
"                              2 6.8.0.6.0.6.6.0.0.6.6.W                 6.8.8.8.6.6.6.0.0.6.6.8.8.8.8.8.0.8.6.i         ",
"                              @.0.8.6.8.6.6.6.0.6.8.6.4.              m 8.6.6.6.8.0.8.6.6.0.0.6.6.8.8.8.8.8.0.$.        ",
"                              ' 0.6.6.6.6.0.6.6.6.6.0.0.P           = 6.6.8.8.8.6.6.6.0.0.6.6.8.8.8.8.5.8.6.6.6.5       ",
"                              O , -.0.6.6.6.6.0.0.6.6.6.0.( #     d 4.6.6.6.8.8.8.6.6.0.0.6.6.8.8.8.6.8.6.8.6.6./       ",
"                                  $ 9 <.0.6.6.6.6.6.0.0.6.6.6.6.6.6.6.6.6.6.8.8.6.6.6.0.0.6.6.8.8.8.6.6.8.6.8.6.6.      ",
"                                      + A 6.6.6.6.8.6.0.6.6.0.0.6.6.8.6.6.8.8.8.8.6.6.0.0.6.6.8.8.0.6.0.6.6.8.8.6.v     ",
"                                          O T 6.6.6.6.6.0.0.6.6.8.8.6.8.8.6.6.6.8.8.8.6.8.0.8.6.6.8.8.6.8.6.8.8.8._     ",
"                                                { 8.0.6.6.6.0.0.6.6.8.8.8.8.6.6.8.8.8.6.6.0.8.6.6.8.6.6.8.6.8.6.8.3.    ",
"                                                $ , $.6.0.0.6.6.8.8.0.8.8.8.6.6.6.8.8.6.6.8.8.8.6.8.6.6.8.6.8.8.6.8.*   ",
"                                                    O g 4.6.0.0.6.6.8.8.8.6.6.6.8.8.8.6.8.8.8.6.6.6.8.6.6.6.6.6.6.8.w   ",
"                                                        O B 6.0.6.6.6.8.8.8.6.6.6.8.8.6.6.8.8.6.6.6.6.8.8.8.8.8.8.6.A   ",
"                                                            $ ! 6.6.6.8.8.8.6.6.8.8.8.6.8.8.0.8.6.8.6.6.8.6.8.6.0.0.L   ",
"                                                                * o.8.6.6.6.8.8.8.6.6.8.8.6.6.8.8.8.8.6.8.6.6.8.8.6.Q   ",
"                                                                    < ,.8.8.6.5.8.8.8.8.8.8.8.6.6.6.5.8.8.8.6.6.6.8.~   ",
"                                                                + & ( 6.0.6.6.6.6.0.8.6.6.0.0.6.6.6.0.8.6.0.6.8.0.6.~   ",
"                                                            $ $ T 5.6.6.6.6.0.8.8.6.6.0.0.6.6.8.8.8.6.6.6.6.6.6.8.6.E   ",
"                                                            f 4.6.8.0.6.6.8.8.8.6.6.6.0.0.6.6.8.8.6.6.6.8.6.6.8.6.6.J   ",
"                                                        y ,.6.6.6.8.8.6.6.6.8.8.8.6.6.0.0.6.6.8.0.6.6.6.6.6.0.6.6.6.l   ",
"                                                    : O.6.0.6.0.8.0.8.8.8.6.6.6.6.8.8.6.6.0.0.6.6.6.0.8.8.6.6.6.8.6.4   ",
"                                                o } 6.6.6.0.6.6.8.8.6.8.8.8.6.6.8.0.8.6.6.0.0.6.6.8.8.8.6.6.6.8.0.8.$   ",
"                                            O T 6.6.0.8.8.0.6.6.8.8.6.8.8.8.6.6.6.0.8.6.6.0.0.6.6.6.8.0.8.6.6.6.8.>.    ",
"                                          l 4.6.8.6.8.8.6.6.0.0.6.6.8.6.6.6.8.8.6.6.6.0.0.6.6.8.0.6.6.6.6.8.0.6.6.I     ",
"                                      6 ,.6.6.6.6.0.6.6.0.6.0.0.8.6.6.8.8.8.6.6.8.0.8.6.6.0.0.6.6.8.8.8.6.6.6.8.6.r     ",
"                                  : =.8.6.6.0.6.6.0.6.6.6.6.0.0.6.6.8.8.8.6.6.6.6.8.0.6.6.0.0.6.6.6.8.8.8.6.6.6.6.      ",
"                              $ } 8.0.0.6.6.8.0.0.6.0.6.6.0.6.6.8.8.8.6.6.6.8.8.8.6.6.0.0.6.6.8.8.8.6.6.6.8.8.8.U       ",
"                              6.6.0.6.6.6.6.6.6.0.6.0.6.0.0.6.6.8.0.6.6.6.8.8.8.6.6.6.0.0.6.6.8.0.6.6.6.8.8.8.5.*       ",
"                              P 0.6.6.0.0.0.0.0.6.6.6.6.0.0.6.6.8.8.6.6.6.6.0.8.6.6.6.0.0.6.6.8.8.8.6.6.8.8.8.`         ",
"                              O 0.6.0.6.6.6.6.6.0.6.0.6.0.0.6.6.8.8.8.6.6.8.8.8.8.6.6.0.0.6.6.8.8.6.6.6.6.8.5.:         ",
"                                G 0.6.6.6.6.6.6.6.6.6.0.6.6.0.0.6.6.6.0.0.6.6.6.6.0.8.6.6.0.0.6.6.8.8.8.8.6.C           ",
"                                  =.0.6.0.0.0.6.6.0.6.6.0.0.6.6.8.0.6.6.6.6.8.8.8.6.6.0.0.6.6.8.8.6.6.6.6.:.            ",
"                                  O 6.6.6.6.8.8.6.0.0.6.0.0.6.6.8.8.8.6.6.8.8.8.8.6.6.0.0.6.6.6.0.6.6.6.5.@             ",
"                                    5 6.6.6.6.8.6.0.6.6.0.0.6.6.8.0.6.6.6.6.8.8.6.6.6.0.0.6.6.0.0.8.6.6.w               ",
"                                      j 6.6.8.8.0.6.0.6.6.6.0.0.6.6.6.8.8.8.6.6.6.0.6.6.6.0.0.6.6.6.6.k                 ",
"                                        x 8.6.6.6.6.0.0.6.6.0.0.6.6.8.8.8.6.6.6.6.0.0.6.6.0.0.6.6.6.z                   ",
"                                          7 5.8.6.0.0.0.6.6.0.0.6.6.6.8.8.8.6.6.6.0.0.6.6.0.0.6.6.9                     ",
"                                            * =.6.6.0.6.6.6.0.0.6.6.8.8.8.6.6.6.6.0.0.6.6.0.6.-.O                       ",
"                                                x 4.6.6.6.6.0.0.6.6.8.8.8.8.6.6.6.0.0.6.6.5.D +                         ",
"                                                  $ H 2.6.6.0.0.6.6.6.8.8.6.6.6.8.0.6.4.K O .                           ",
"                                                        r { 3.6.6.0.8.6.6.6.0.8.4./ t X                                 ",
"                                                            O & u n V B N S e * O                                       ",
"                                                                                                                        ",
"                                                                                                                        "
};
