/* XPM */
static char *pacman2left1684844406[] = {
/* columns rows colors chars-per-pixel */
"60 60 131 2 ",
"   c #000001",
".  c #040303",
"X  c #030403",
"o  c #050503",
"O  c #070705",
"+  c #080705",
"@  c #070806",
"#  c #090900",
"$  c #0C0D00",
"%  c #080806",
"&  c #0C0C07",
"*  c #0E0D06",
"=  c #0D0D09",
"-  c #121200",
";  c #141400",
":  c #1E1E00",
">  c #11100A",
",  c #202000",
"<  c #232400",
"1  c #252500",
"2  c #232207",
"3  c #27270B",
"4  c #24240D",
"5  c #28270E",
"6  c #28280F",
"7  c #353600",
"8  c #333304",
"9  c #373800",
"0  c #3C3C06",
"q  c #33330E",
"w  c #37370D",
"e  c #393A09",
"r  c #2E2E11",
"t  c #303010",
"y  c #393911",
"u  c #3B3B13",
"i  c #3E3D10",
"p  c #404100",
"a  c #444307",
"s  c #484800",
"d  c #4F4F00",
"f  c #4B4C04",
"g  c #454508",
"h  c #585A00",
"j  c #5E5F00",
"k  c #5C5C08",
"l  c #4A4913",
"z  c #4B4B14",
"x  c #4F4E14",
"c  c #545410",
"v  c #515014",
"b  c #545314",
"n  c #555415",
"m  c #575616",
"M  c #595813",
"N  c #5C5C12",
"B  c #636303",
"V  c #686A00",
"C  c #6F7001",
"Z  c #757603",
"A  c #777800",
"S  c #73720B",
"D  c #7C7C0E",
"F  c #636410",
"G  c #646316",
"H  c #656516",
"J  c #696911",
"K  c #6C6C14",
"L  c #706F17",
"P  c #7E7E11",
"I  c #7B7A16",
"U  c #818203",
"Y  c #88890F",
"T  c #8E8F0D",
"R  c #919200",
"E  c #989900",
"W  c #999B03",
"Q  c #9D9E06",
"!  c #848512",
"~  c #878713",
"^  c #8E8F15",
"/  c #919212",
"(  c #969713",
")  c #939414",
"_  c #9D9D10",
"`  c #A2A500",
"'  c #A1A205",
"]  c #A6A800",
"[  c #A9AB00",
"{  c #B2B400",
"}  c #BABD02",
"|  c #BDBF01",
" . c #B8B90C",
".. c #BFBF0E",
"X. c #A0A010",
"o. c #A8A912",
"O. c #B2B312",
"+. c #BABB10",
"@. c #C0C204",
"#. c #C6C806",
"$. c #C4C60B",
"%. c #C6C70D",
"&. c #CECF0D",
"*. c #CFD100",
"=. c #D2D400",
"-. c #D4D603",
";. c #D6D900",
":. c #D6D806",
">. c #DCDE06",
",. c #D1D20A",
"<. c #D4D60A",
"1. c #D0D10D",
"2. c #D8DA0A",
"3. c #DBDC08",
"4. c #D8D90C",
"5. c #DEE002",
"6. c #DEE106",
"7. c #E5E702",
"8. c #E2E407",
"9. c #E4E604",
"0. c #E7E902",
"q. c #E7EA04",
"w. c #E6E906",
"e. c #E8EA02",
"r. c #EAED00",
"t. c #E9EC03",
"y. c #ECEF00",
"u. c #E0E10B",
"i. c #E1E20A",
"p. c #E3E508",
"a. c #EDF000",
/* pixels */
"                                                                                                                        ",
"                                                                                                                        ",
"                                                                                                                        ",
"                                                                                                                        ",
"                                                                                                                        ",
"                                                                                                                        ",
"                                                            3 ^ $.u.r.a.r.u.%.( t                                       ",
"                                                      y #.r.r.r.a.a.r.r.r.r.y.r.r.r.&.a                                 ",
"                                                  d 9.y.r.r.a.a.r.r.r.y.y.r.r.r.y.a.r.r.w.m                             ",
"                                              > <.r.r.y.r.a.r.r.y.a.y.r.r.y.y.y.r.r.r.a.r.r.2.&                         ",
"                                            N a.r.y.r.y.y.a.r.r.y.a.r.r.r.y.y.y.y.r.r.r.r.r.r.r.J                       ",
"                                          [ r.y.y.r.r.r.r.r.a.a.r.r.y.y.y.r.r.r.r.a.a.a.r.a.r.r.a.O.                    ",
"                                        %.r.r.r.r.y.y.y.r.r.e.=.;.r.r.a.y.y.r.r.y.a.a.r.a.r.r.r.y.r.%.                  ",
"                                      +.r.r.r.a.y.r.a.y.r.1         @.r.r.r.y.y.r.r.r.a.a.r.r.r.r.a.r.%.                ",
"                                    ( y.r.r.r.y.y.r.r.r.p             >.y.r.r.r.r.y.a.r.r.a.a.r.r.y.a.r.X.              ",
"                                  s r.r.r.r.y.r.r.y.a.-.              9 y.y.r.r.y.a.y.r.r.a.a.r.r.r.r.y.r.z             ",
"                                % e.y.r.y.r.r.y.y.r.r.A                 r.r.y.y.r.r.r.a.a.r.r.y.e.y.y.y.a.w.%           ",
"                                O.r.a.a.r.r.y.y.y.y.r.C                 r.a.r.r.y.y.y.r.r.a.a.r.r.y.r.r.y.a.%.          ",
"                              2 r.y.a.r.y.r.r.y.y.y.r.)                 r.y.y.y.r.r.r.a.a.r.r.y.a.y.y.y.y.y.r.i         ",
"                              *.a.y.r.y.r.r.y.y.y.r.r.7.              V y.r.r.r.y.a.y.r.r.a.a.r.r.y.r.y.y.y.y.:.        ",
"                            O r.a.r.r.r.r.a.y.r.r.y.y.a.R           - e.r.r.y.y.r.r.r.a.a.r.r.y.y.y.y.r.y.r.r.r.r       ",
"                            ! a.a.r.a.r.r.r.r.y.y.r.r.r.a. .$     g w.r.r.y.y.y.y.r.r.a.a.r.r.y.y.y.r.y.r.y.r.r.}       ",
"                            6.r.r.a.a.y.y.r.r.r.r.r.a.y.r.r.r.r.r.r.y.r.r.y.y.y.r.r.r.a.a.r.r.y.y.y.r.r.y.r.y.r.r.      ",
"                            r.a.a.r.r.r.y.r.y.r.r.y.y.y.r.r.a.a.r.r.r.r.r.r.y.y.y.r.r.a.a.r.r.y.y.y.r.y.r.r.y.y.r.M     ",
"                          < r.a.a.r.r.y.y.y.r.r.r.r.r.r.a.a.r.r.y.y.y.y.y.y.r.r.y.y.y.r.y.a.y.r.r.y.y.r.y.r.y.y.r.$.    ",
"                          k y.r.r.a.a.r.r.r.y.y.y.y.a.y.r.r.a.a.r.r.r.y.y.r.r.r.y.y.y.r.r.a.y.r.r.y.r.r.y.r.y.r.a.e.    ",
"                              : Q p.r.a.y.y.y.r.r.y.r.r.a.a.r.r.y.y.a.y.y.r.r.r.r.y.y.r.r.y.y.y.r.y.r.r.y.r.y.y.r.a.=   ",
"                                      j 1.r.r.a.y.r.r.r.r.r.a.a.r.r.r.y.y.y.r.r.y.y.y.r.y.y.y.r.r.r.y.r.r.r.r.r.r.r.w   ",
"                                            ; T 9.r.a.y.r.r.r.a.r.r.r.y.y.y.r.r.r.y.y.r.r.y.y.r.r.r.r.y.y.y.y.y.y.r.F   ",
"                                                    d } y.a.r.r.r.r.y.y.y.y.r.r.y.y.y.r.y.y.a.y.r.y.r.r.y.r.y.r.a.a.~   ",
"                                                          O U 4.y.y.y.r.r.r.y.y.y.r.r.y.y.r.r.y.y.y.y.r.y.r.r.y.y.r._   ",
"                                                                  , { e.y.y.r.e.y.y.y.y.y.y.y.r.r.r.e.y.y.y.r.r.r.y.`   ",
"                                                              7 / w.r.r.y.r.r.r.y.y.y.r.r.a.a.r.r.r.a.a.r.a.r.r.a.r.`   ",
"                                                      3 E u.r.r.r.r.r.r.r.y.y.y.y.r.r.a.a.r.r.y.a.r.r.r.r.r.r.y.a.r.(   ",
"                                              ; ] 5.r.a.a.a.r.r.r.y.r.r.r.r.y.y.r.r.r.a.a.r.r.y.r.y.r.r.r.r.r.r.y.r.P   ",
"                                      1 o.8.r.a.y.r.r.a.r.r.r.r.r.y.y.r.r.y.y.y.y.r.r.y.a.r.r.y.a.r.r.r.y.r.a.r.r.r.c   ",
"                              q ] w.r.y.r.r.r.y.y.y.r.r.r.y.r.a.y.y.r.y.y.y.r.r.y.y.y.r.r.a.a.r.r.y.a.a.r.r.r.y.y.r.4   ",
"                          ' y.r.r.y.a.a.r.r.y.y.y.r.r.r.y.a.r.r.y.y.y.y.y.r.r.r.r.a.y.r.r.a.a.r.r.r.r.a.y.r.r.r.a.y.%   ",
"                          h r.a.y.r.r.y.y.y.y.r.r.y.y.y.r.y.r.r.y.y.y.y.y.r.r.r.y.y.y.r.r.a.a.r.r.r.a.a.r.r.r.r.y.6.    ",
"                          $ r.a.y.r.r.r.y.y.y.r.y.r.y.y.y.r.a.a.r.r.r.r.r.y.y.y.r.r.r.a.a.r.r.y.a.r.r.r.r.a.a.y.r.W     ",
"                            e.a.a.r.r.y.r.r.y.e.r.y.r.y.y.r.a.a.y.r.r.y.y.y.r.r.y.y.y.r.r.a.a.r.r.r.a.a.r.r.r.r.a.5     ",
"                            *.a.y.r.r.y.r.r.y.r.r.a.r.r.r.r.a.a.r.r.y.y.y.r.r.r.y.y.y.r.r.a.a.r.r.y.a.r.y.r.r.r.y.      ",
"                            f a.r.y.y.y.r.r.r.a.y.y.y.r.y.y.r.r.y.y.y.r.r.r.y.y.r.r.r.a.a.r.r.y.a.r.r.r.r.r.a.r.!       ",
"                              r.y.y.y.r.r.r.y.r.y.r.y.y.a.y.r.r.y.y.r.r.r.y.y.y.y.r.r.y.a.r.r.y.a.r.r.r.y.a.a.r.*       ",
"                              R y.y.r.y.y.y.y.y.r.r.r.r.a.a.r.r.y.y.y.r.r.y.y.y.y.r.r.a.a.r.r.y.a.r.r.r.y.a.a.X.        ",
"                              O y.r.a.y.y.y.r.r.y.y.y.r.a.a.r.r.y.y.r.r.r.r.y.y.r.r.r.a.a.r.r.y.a.r.r.r.r.a.e.>         ",
"                                K y.r.r.r.r.r.y.r.y.r.y.r.r.a.a.r.r.y.y.y.y.r.r.y.y.y.r.r.a.a.r.r.r.r.a.y.r.D           ",
"                                  1.y.y.y.y.y.r.r.a.r.r.a.a.r.r.y.y.r.r.r.r.y.y.y.r.r.a.a.r.r.y.a.y.r.r.r.3.            ",
"                                  O r.r.r.r.y.y.y.y.y.r.a.a.r.r.y.y.r.r.r.r.y.y.r.r.r.a.a.r.r.y.y.y.r.r.0.#             ",
"                                    6 r.r.r.r.y.r.y.r.r.a.a.r.r.y.a.y.r.r.y.y.y.y.r.r.a.a.r.r.y.a.r.r.r.w               ",
"                                      l r.r.y.y.y.r.a.y.r.r.a.a.r.r.y.y.y.r.r.r.r.y.y.r.r.a.a.r.r.r.r.x                 ",
"                                        b y.r.r.r.y.y.y.r.r.a.a.r.r.r.y.y.y.r.r.y.y.y.r.r.a.a.r.r.y.v                   ",
"                                          8 e.a.r.y.y.y.r.r.a.a.r.r.y.y.y.r.r.r.r.a.y.r.r.y.y.r.e.0                     ",
"                                            = 1.r.r.y.y.r.r.a.a.r.r.r.y.y.y.r.r.y.y.y.r.r.y.y.<.@                       ",
"                                                n w.y.r.r.r.a.a.r.r.r.y.y.r.r.r.r.y.y.r.r.e.H @                         ",
"                                                  @ L w.r.r.r.y.r.r.y.y.y.y.r.r.y.y.y.w.I + .                           ",
"                                                        r  .9.r.r.a.a.r.r.y.y.y.w.| t X                                 ",
"                                                            O & y B S Z Z G e = O                                       ",
"                                                                                                                        ",
"                                                                                                                        "
};
