/* XPM */
static char *_a788dd91fe24598bbae4e0c9bca1fb5aI6QlshPS255VcPM[] = {
/* columns rows colors chars-per-pixel */
"60 60 6 1 ",
"  c black",
". c #030300",
"X c #03030E",
"o c #3B3C9C",
"O c #5556F1",
"+ c #5E5FF9",
/* pixels */
"                  XX++  ooOO                                ",
"                  XX++  ooOO                                ",
"                  XX++  ooOO                                ",
"                  XX++  ooOO                                ",
"                  XX++  ooOO                                ",
"                  XX++  ooOO                                ",
"                  XX++  ooOO                                ",
"                  XX++  ooOO                                ",
"                  XX++  ooOO                                ",
"                  XX++  ooOO                                ",
"                  XX++  ooOO                                ",
"                  XX++  ooOO                                ",
"                  XX++  ooOO                                ",
"                  XX++  ooOO                                ",
"                  XX++  ooOO  ..                            ",
"                  XX++  ooOO                                ",
"                  XX++  ooOO                                ",
"                  XX++  ooOO                                ",
"                  XX++  ooOO                                ",
"                  XX++  ooOO                                ",
"                  XX++  ooOO                                ",
"                  XX++  ooOO                                ",
"                  XX++  ooOO                                ",
"                  XX++  ooOO                                ",
"                  XX++  ooOO                                ",
"                  XX++  ooOO                                ",
"                  XX++  ooOO                                ",
"                  XX++  ooOO                                ",
"                  XX++  ooOO                                ",
"                  XX++  ooOO                                ",
"                  XX++  ooOO                                ",
"                  XX++  ooOO                                ",
"                  XX++  ooOO                                ",
"                  XX++  ooOO                                ",
"                  XX++  ooOO                                ",
"                  XX++  ooOO                                ",
"                  XX++  ooOO                                ",
"                  XX++  ooOO                                ",
"                  XX++  ooOO                                ",
"                  XX++  ooOO                                ",
"                  XX++  ooOO                                ",
"                  XX++  ooOO                                ",
"                  XX++  ooOO                                ",
"                  XX++  ooOO                                ",
"                  XX++  ooOO                                ",
"                  XX++  ooOO                                ",
"                  XX++  ooOO                                ",
"                  XX++  ooOO                                ",
"                  XX++  ooOO                                ",
"                  XX++  ooOO                                ",
"                  XX++  ooOO                                ",
"                  XX++  ooOO                                ",
"                  XX++  ooOO                                ",
"                  XX++  ooOO                                ",
"                  XX++  ooOO                                ",
"                  XX++  ooOO                                ",
"                  XX++  ooOO                                ",
"                  XX++  ooOO                                ",
"                  XX++  ooOO                                ",
"                  XX++  ooOO                                "
};
