/* XPM */
static char *wall_v_1_png1684157019[] = {
/* columns rows colors chars-per-pixel */
"60 60 6 1 ",
"  c black",
". c #030300",
"X c #03030E",
"o c #3B3C9C",
"O c #5556F1",
"+ c #5E5FF9",
/* pixels */
"                                OOoo  ++XX                  ",
"                                OOoo  ++XX                  ",
"                                OOoo  ++XX                  ",
"                                OOoo  ++XX                  ",
"                                OOoo  ++XX                  ",
"                                OOoo  ++XX                  ",
"                                OOoo  ++XX                  ",
"                                OOoo  ++XX                  ",
"                                OOoo  ++XX                  ",
"                                OOoo  ++XX                  ",
"                                OOoo  ++XX                  ",
"                                OOoo  ++XX                  ",
"                                OOoo  ++XX                  ",
"                                OOoo  ++XX                  ",
"                            ..  OOoo  ++XX                  ",
"                                OOoo  ++XX                  ",
"                                OOoo  ++XX                  ",
"                                OOoo  ++XX                  ",
"                                OOoo  ++XX                  ",
"                                OOoo  ++XX                  ",
"                                OOoo  ++XX                  ",
"                                OOoo  ++XX                  ",
"                                OOoo  ++XX                  ",
"                                OOoo  ++XX                  ",
"                                OOoo  ++XX                  ",
"                                OOoo  ++XX                  ",
"                                OOoo  ++XX                  ",
"                                OOoo  ++XX                  ",
"                                OOoo  ++XX                  ",
"                                OOoo  ++XX                  ",
"                                OOoo  ++XX                  ",
"                                OOoo  ++XX                  ",
"                                OOoo  ++XX                  ",
"                                OOoo  ++XX                  ",
"                                OOoo  ++XX                  ",
"                                OOoo  ++XX                  ",
"                                OOoo  ++XX                  ",
"                                OOoo  ++XX                  ",
"                                OOoo  ++XX                  ",
"                                OOoo  ++XX                  ",
"                                OOoo  ++XX                  ",
"                                OOoo  ++XX                  ",
"                                OOoo  ++XX                  ",
"                                OOoo  ++XX                  ",
"                                OOoo  ++XX                  ",
"                                OOoo  ++XX                  ",
"                                OOoo  ++XX                  ",
"                                OOoo  ++XX                  ",
"                                OOoo  ++XX                  ",
"                                OOoo  ++XX                  ",
"                                OOoo  ++XX                  ",
"                                OOoo  ++XX                  ",
"                                OOoo  ++XX                  ",
"                                OOoo  ++XX                  ",
"                                OOoo  ++XX                  ",
"                                OOoo  ++XX                  ",
"                                OOoo  ++XX                  ",
"                                OOoo  ++XX                  ",
"                                OOoo  ++XX                  ",
"                                OOoo  ++XX                  "
};
