/* XPM */
static char *result[] = {
/* columns rows colors chars-per-pixel */
"60 60 7 1 ",
"  c black",
". c #030300",
"X c #38399F",
"o c #3939A5",
"O c #3D3CAC",
"+ c #4445C4",
"@ c #5757FB",
/* pixels */
"                                                            ",
"                                                            ",
"                                                            ",
"                                                            ",
"                                                            ",
"                                                            ",
"                                                            ",
"                                                            ",
"                                                            ",
"                                                            ",
"                                                            ",
"                                                            ",
"                                                            ",
"                                                            ",
"                                                            ",
"                                                            ",
"                                                            ",
"                                                            ",
"                                                            ",
"                                                            ",
"                                                            ",
"                                                            ",
"                                                            ",
"                                                            ",
"                                                            ",
"                                                            ",
"                                                            ",
"                                                            ",
"                                                            ",
"                                                            ",
"                                                            ",
"                                                            ",
"                                                      ...   ",
"                                                      ...   ",
"                                                            ",
"                                                            ",
"ooooooooooooooooooooooooooooooooooooooooooooooooooooooooooXX",
"ooooooooooooooooooooooooooooooooooooooooooooooooooooooooooXX",
"++++++++++++++++++++++++++++++++++++++++++++++++++++++++++++",
"++++++++++++++++++++++++++++++++++++++++++++++++++++++++++++",
"                                                            ",
"                                                            ",
"@@@@@@@@@@@@@@@@@@@@@@@@@@@@@@@@@@@@@@@@@@@@@@@@@@@@@@@@@@@@",
"@@@@@@@@@@@@@@@@@@@@@@@@@@@@@@@@@@@@@@@@@@@@@@@@@@@@@@@@@@@@",
"OOOOOOOOOOOOOOOOOOOOOOOOOOOOOOOOOOOOOOOOOOOOOOOOOOOOOOOOOOOO",
"OOOOOOOOOOOOOOOOOOOOOOOOOOOOOOOOOOOOOOOOOOOOOOOOOOOOOOOOOOOO",
"                                                            ",
"                                                            ",
"                                                            ",
"                                                            ",
"                                                            ",
"                                                            ",
"                                                            ",
"                                                            ",
"                                                            ",
"                                                            ",
"                                                            ",
"                                                            ",
"                                                            ",
"                                                            "
};
